<svg xmlns="http://www.w3.org/2000/svg" width="647.195" height="569.718" viewBox="0 0 647.195 569.718"><g transform="translate(-1118.511 -229)"><g transform="translate(50.29 -136)"><g transform="translate(161 219)"><path d="M190,0h1.078c.646,0,1.281.01,1.925.02l-.031,2C191.987,2.008,190.987,2,190,2V0Zm6,.093q1.03.032,2.057.075h.009l.079,0h.015l.078,0h.012l.085,0h.034l.049,0,.048,0,.088,0h.014L199,.209l-.093,2c-.983-.046-1.981-.085-2.965-.115ZM202,.373q.982.061,1.961.132h.012l.075.005h.021l.069.005.021,0,.087.006h0l.087.006.026,0,.059,0,.033,0,.057,0,.029,0,.075.006h.01L204.7.56h.018l.068.005.025,0,.068.005h.017l.087.007-.156,1.994c-.981-.077-1.977-.146-2.96-.208Zm5.98.467h.006l.084.008h0l.09.009h.014l.072.007.028,0,.056.005.034,0,.051,0,.036,0,.077.007.049,0,.033,0,.053.005.027,0,.057.006.018,0,.211.021h0l.072.007h.006l1.033.106.015,0,.054.006.032,0,.047.005.046,0,.035,0,.086.009h0l.091.01h0l.463.05-.218,1.988c-.979-.107-1.973-.209-2.954-.3Zm5.963.654q.882.111,1.761.23l.02,0,.061.008.033,0,.05.007.037.005.042.006.094.013.019,0,.061.008.017,0,.066.009h0l.662.092h0l.044.006-.281,1.98c-.975-.138-1.965-.271-2.943-.394Zm5.942.842c.791.125,1.568.253,2.356.387l.011,0,.062.011.024,0,.054.009.077.013.02,0,.069.012.017,0,.082.014h0l.184.032L222.5,4.8c-.969-.169-1.954-.332-2.926-.486Zm5.91,1.03c.789.15,1.562.3,2.348.463l.012,0,.062.013.017,0,.06.012.008,0,.112.023.032.006.044.009.041.008.039.008.055.011.026.005.085.018h0l-.406,1.958c-.964-.2-1.944-.395-2.911-.579l.374-1.965Zm5.873,1.216q1.467.328,2.924.679l-.468,1.945c-.958-.23-1.931-.456-2.893-.671Zm5.835,1.4q.726.187,1.449.379h0l.18.048h0l.086.023.008,0,.082.022.006,0,.176.047.009,0,.079.021.01,0,.265.072h0l.54.147-.529,1.929c-.949-.26-1.914-.517-2.867-.762Zm5.786,1.588.761.224.011,0,.061.018.016,0,.1.03.03.009.04.012.041.012.038.011.05.015.03.009.164.049.018.005.07.021.014,0q.715.215,1.428.435l-.59,1.911c-.941-.291-1.9-.578-2.843-.853Zm5.731,1.771q.823.269,1.644.545h0l.271.092.005,0,.922.315-.651,1.891c-.932-.321-1.879-.638-2.815-.944l.621-1.9Zm5.674,1.953.018.007.038.014.037.013.079.029.013,0,.077.028h0q1.009.367,2.012.745l.036.014.034.013.056.021h0l.4.153-.711,1.869c-.92-.35-1.856-.7-2.782-1.032Zm5.608,2.132.04.016.006,0,.06.024.037.015.036.014.08.032.008,0q1.26.5,2.511,1.026l-.77,1.846c-.909-.379-1.834-.756-2.748-1.121Zm5.537,2.309q1.16.505,2.311,1.026l.009,0,.069.031.018.008.067.03.019.008.065.029.045.02.026.012.054.025.005,0,.054.024-.828,1.821c-.9-.408-1.809-.814-2.712-1.208Zm5.462,2.484.467.222.027.013.036.017.047.022.026.013.067.032.008,0,.082.04h0l.08.038.006,0,.5.242,0,0,.076.037.01,0,.162.079.009,0,.066.032.024.012.055.027.024.012.073.035.026.013.048.023.036.017.039.019.038.019.039.019.068.033.032.016.045.022.028.014.046.023.023.011.111.054h0l.047.023.028.014.045.022.031.015.041.02.068.033.007,0-.885,1.793c-.883-.436-1.782-.871-2.671-1.293l.857-1.807Zm5.38,2.656.75.387h0l.165.086,0,0,.069.036.023.012.053.027.026.013.063.033.044.023.034.018.045.023.024.013.05.026.006,0c.34.178.67.352,1.009.532l.007,0,.059.031.007,0,.087.046.041.022.027.014.058.031.008,0-.942,1.764c-.869-.464-1.754-.927-2.63-1.377Zm5.292,2.825.023.013.035.019.041.023.023.013c.685.38,1.362.762,2.042,1.15l.008,0,.057.032.008,0,.1.059.017.01.04.023.034.019.036.02.048.028.022.012.075.043h0l-1,1.734c-.854-.491-1.724-.982-2.585-1.46l.97-1.749Zm5.2,2.991q.563.336,1.123.675l.005,0,.073.044.007,0,.156.1,0,0,.072.044.011.006.154.094,0,0,.071.043.012.007.07.043.005,0,.152.093.014.009.066.04.01.006.152.093.012.007.063.038.016.01.146.09.023.014.049.03.029.018.043.027.023.014-1.051,1.7c-.838-.518-1.691-1.036-2.537-1.54Zm5.1,3.154.358.23.02.013.036.023.044.028.022.014q1.021.658,2.034,1.328l-1.1,1.667c-.821-.544-1.658-1.089-2.488-1.62l1.078-1.685Zm5,3.313q.617.423,1.231.851l0,0,.143.1.026.018.041.029.033.023.029.02.148.1.007.005c.268.188.531.373.8.563l-1.156,1.632c-.8-.57-1.623-1.141-2.436-1.7Zm4.9,3.47.678.5,0,0,.07.052,0,0,.07.052.02.015.044.032.034.025.03.022.147.109.008.006.052.039.007.005c.4.3.795.594,1.193.9l0,0,.042.031-1.207,1.595c-.785-.595-1.586-1.191-2.381-1.773Zm4.784,3.622.142.111.013.01.058.045.012.01.068.053.013.01.054.042.024.019.04.032.03.023.034.026.068.054.018.014.046.037.013.01c.579.456,1.143.907,1.716,1.37l-1.257,1.556c-.766-.619-1.548-1.24-2.324-1.847Zm4.667,3.77.358.3,0,0,.065.055.006.005.065.055.022.019.039.033.034.028.026.022.137.115.014.012.046.039.011.009.151.128.008.007.048.041.01.009.149.126.011.009.043.036.019.016.041.035.02.017.068.058.028.024.034.029.029.025.033.028.035.03.035.03.052.045.025.022.038.033.028.024.042.036.021.018.062.053.021.018.041.035.029.024.035.03.029.025.056.048.036.031.024.02.041.035.016.014.1.088-1.3,1.516c-.746-.643-1.508-1.288-2.265-1.919Zm4.547,3.915q.35.311.7.624l0,0,.064.057.007.007.131.118.016.014.047.043.021.019.046.042.018.016.058.053.027.024.035.032.03.027.032.029.031.028.054.049.034.031.027.024.036.033.023.021.038.034.008.007.081.073.024.022.037.034.021.019.04.036.007.007.084.076.019.017.039.036.02.018.039.036.017.016.071.065.024.022.035.032.026.024.034.031.028.026.051.047.036.033.009.009-1.352,1.474c-.726-.666-1.467-1.335-2.2-1.989Zm4.421,4.056.27.256,0,0,.133.127,0,0,.062.059,0,0,.2.19,0,0q.745.712,1.482,1.432l-1.4,1.431c-.7-.688-1.425-1.381-2.14-2.058Zm4.292,4.192.123.124.033.033.021.022.041.042,0,0c.313.317.628.637.939.956l.009.009.036.037.025.026.028.029.044.046.013.013.061.063.006.007.061.063h0q.326.336.651.674l-1.442,1.386c-.683-.71-1.381-1.425-2.074-2.124Zm4.158,4.325.487.525.006.006.04.043.017.018.037.04.018.019.06.065.026.028.03.032.028.03.028.03.038.042.021.023.049.053.024.026.034.037.023.026.039.042.018.019.054.059.021.023.036.04.022.025.04.044.016.018.054.059.022.024.035.038.025.027.034.037.023.025.052.057.025.028.03.033.028.031.029.032.026.029.04.044.038.042.028.031.031.034.023.025.033.036.021.023.062.069.019.021.035.039.019.021.036.039.015.016.035.038-1.484,1.34c-.66-.731-1.335-1.467-2.007-2.188Zm4.021,4.453.024.028.026.029.029.033.026.03.028.033.035.04.034.039.036.042.024.028.032.037.023.026.044.051.011.013.055.063.014.017.043.049.016.018.115.133,0,0,.056.064.006.007.18.209,0,0q.489.567.973,1.137l0,0,.118.139,0,0-1.526,1.293c-.637-.751-1.288-1.508-1.937-2.25l1.505-1.317Zm3.879,4.577q.3.361.591.724l.005.006.049.06.011.013.051.063.017.022.037.045.026.032.023.029.031.039.013.016.121.15.005.006c.3.375.6.752.9,1.129l-1.566,1.244c-.613-.771-1.24-1.548-1.865-2.31Zm3.733,4.7c.312.405.625.816.934,1.224l0,0,.119.157.011.014.033.043.017.022.031.041.02.027.045.059.029.038.023.031.027.036.024.032.029.039.028.037.039.053.022.03.028.037.024.032.027.036.024.032.043.058.032.043.015.02.035.047.008.011.142.19-1.6,1.194c-.588-.79-1.191-1.586-1.792-2.367Zm3.584,4.812.16.223.01.013.039.054.016.023.036.05.035.049.021.029.031.043.015.021.034.047,0,0,.122.17,0,0c.18.252.356.5.535.754l0,.006.116.165.006.009.034.048.013.018.033.047.01.015.064.09.012.017.03.043.016.023.031.044.013.018.106.151.012.018.033.047.011.016.134.193-1.641,1.143c-.563-.808-1.14-1.623-1.716-2.422Zm3.43,4.922c.443.657.885,1.322,1.319,1.985l.014.022.026.04.026.04.017.026.048.073,0,0,.2.312-1.676,1.091c-.537-.825-1.089-1.658-1.639-2.475l1.659-1.117ZM350.962,89q.574.912,1.137,1.831h0l.046.075,0,.006.09.147.018.029.023.038.024.039.009.015.225.37-1.71,1.038c-.511-.842-1.036-1.691-1.56-2.525Zm3.113,5.129c.278.474.549.942.823,1.419h0l.137.24.009.016.028.05.013.022.042.073.021.037.019.034.024.041.017.03.031.054.01.017.09.159h0l.231.408-1.742.983c-.484-.857-.982-1.723-1.479-2.573Zm2.949,5.224q.716,1.317,1.413,2.647l-1.772.928c-.457-.873-.927-1.754-1.4-2.619l1.757-.956Zm2.783,5.316q.231.458.459.918l0,.008.035.071.006.012.037.075.014.029.022.043.02.041.013.027c.242.489.479.974.717,1.466l-1.8.871c-.429-.886-.871-1.782-1.314-2.662Zm2.613,5.4q.247.531.49,1.064l.01.022.02.044.017.037.016.036.034.074,0,.007.033.073.008.019.031.067,0,.011q.172.38.343.76l.006.014.028.063.011.024.022.05.072.16v0l.091.2-1.827.813c-.4-.9-.814-1.808-1.228-2.7l1.814-.842Zm2.44,5.48q.588,1.379,1.155,2.77l-1.852.755c-.372-.912-.756-1.834-1.143-2.74Zm2.265,5.556q.168.432.335.866l.008.02.021.056.012.031.015.04.038.1,0,0,.025.066v0c.2.537.41,1.081.61,1.62l-1.875.7c-.343-.923-.7-1.857-1.055-2.774Zm2.087,5.626q.483,1.368.946,2.746l0,.006.023.07,0,.014-1.9.636c-.313-.933-.638-1.877-.965-2.806Zm1.907,5.688c.092.29.183.577.273.868h0l.019.06.006.02.017.055.007.022.026.084.013.041.012.038.014.044.011.036.016.051.009.028.025.079.005.017.021.067.007.023.019.063.006.02.052.168,0,.014.022.07.006.018.022.071,0,.014.026.085h0l.024.08.007.022.019.062.008.025.019.063.006.02.023.077.011.036.013.042.014.045.009.029.092.306-1.916.575c-.283-.944-.578-1.9-.876-2.837Zm1.725,5.747,0,.017.012.042.011.039.02.072.012.043.011.038.012.043.011.039.012.041.013.046.018.064.012.044.012.041.011.041.011.04.012.043.011.038.021.075.009.032.014.05.009.034.014.05.009.032.017.062.005.019.022.08.008.027.015.056.008.03.016.058.007.024.022.082,0,.011.02.072.006.024.017.061.007.025.019.07,0,.013.023.084,0,.018.018.065.007.025.017.062.006.022.045.165.008.029.014.053.009.033.014.051.008.031.02.075.011.042.01.038.012.046.009.032.013.049.005.02.052.2v0l.01.037-1.933.514c-.253-.952-.517-1.915-.785-2.862Zm1.542,5.8c.047.19.094.38.141.57l.014.057.005.022.018.072,0,.009q.166.68.328,1.361v0l.021.087v0l.019.081.011.046.007.028.015.063v0c.039.167.08.342.119.509l-1.948.452c-.223-.959-.456-1.929-.693-2.885l1.941-.483Zm1.356,5.843c.062.289.124.581.185.87l0,.019.012.056.005.025.011.054,0,.023.021.1.006.031.01.046.007.036.01.046.008.036.01.046,0,.022.021.1.006.027.011.051.006.029.011.054,0,.02.039.192,0,.015.013.063,0,.011c.067.326.129.638.194.964l-1.962.39c-.192-.967-.395-1.945-.6-2.908l1.955-.421Zm1.17,5.885q.185,1.012.358,2.028v0l.046.272,0,.01.013.079,0,.012.015.087h0l.015.09,0,.014.012.069,0,.028.01.057.005.031.009.057.006.035.012.07,0,.012-1.973.328c-.161-.972-.333-1.956-.509-2.924Zm.983,5.92c.147.984.288,1.98.421,2.969l-1.982.265c-.13-.976-.271-1.964-.416-2.937Zm.795,5.946q.082.7.159,1.393v.008l.008.075,0,.022.007.061,0,.029.006.054.009.085,0,.016.007.067v.008c.042.386.083.778.122,1.165l-1.99.2c-.1-.98-.209-1.973-.324-2.951Zm.607,5.968c.033.388.065.775.1,1.164v.017l0,.058,0,.031,0,.05.006.078v.017l.006.073v.018l.006.076v.011q.054.7.1,1.4l-2,.14c-.069-.983-.147-1.98-.231-2.961Zm.42,5.986c.033.607.064,1.225.091,1.833v.016l0,.053,0,.038,0,.042,0,.056v.026q.02.466.038.932l-2,.077c-.038-.984-.085-1.982-.138-2.965Zm.232,6q.006.278.012.556v.007l0,.091v.3s0,.006,0,.009q.018,1.014.026,2.032l-2,.015c-.008-.985-.023-1.983-.046-2.967Zm-1.954,5.988,2,.016q0,.374-.007.747v.007q0,.04,0,.079c0,.006,0,.01,0,.016,0,.026,0,.052,0,.078v.152c0,.006,0,.012,0,.018v.07s0,0,0,0c-.008.613-.02,1.215-.034,1.827l-2-.047C377.971,193.484,377.986,192.486,377.994,191.5Zm-.139,5.936,2,.078,0,.126v.023l0,.054,0,.061v.019l0,.092h0q-.036.889-.081,1.775v.007l0,.081v.014l0,.082,0,.053,0,.03,0,.069v.006c-.009.171-.018.333-.027.5l-2-.109C377.771,199.419,377.817,198.422,377.856,197.438Zm-.323,5.927,2,.14c-.038.547-.079,1.092-.122,1.638v.007l-.005.067,0,.021,0,.06v.016l-.008.1,0,.048,0,.033,0,.058,0,.027-.006.073v.01q-.034.419-.07.838l-1.993-.171C377.385,205.344,377.463,204.348,377.532,203.365Zm-.509,5.915,1.99.2q-.109,1.074-.231,2.144v0l-.009.079,0,.019-.008.07,0,.019,0,.03-.013.117v0c-.019.168-.038.33-.058.5l-1.986-.234C376.815,211.253,376.924,210.26,377.024,209.28Zm-.695,5.9,1.982.265,0,.012-.008.057-.006.046-.008.058,0,.036-.007.052,0,.033-.007.055,0,.03-.011.084v0l-.011.082,0,.025-.008.061,0,.027-.009.065,0,.02-.024.175,0,.016-.01.074,0,.015-.012.083v0l-.026.183v.005l-.012.087v0q-.111.788-.229,1.573l-1.978-.3C376.058,217.141,376.2,216.153,376.329,215.177Zm-.88,5.87,1.973.328q-.177,1.064-.365,2.124v.007l-.013.075,0,.027-.01.057-.006.032-.008.047-.031.175,0,.009-.073.4-1.967-.359C375.116,223,375.287,222.019,375.449,221.047Zm-1.065,5.838,1.962.39-.092.457,0,.008-.015.075,0,.021-.014.068,0,.019-.017.081-.006.032-.01.05-.008.039-.009.044-.008.04-.01.049-.01.049-.012.06-.009.042-.009.042-.009.042-.009.042-.008.04-.011.055-.011.054-.01.05-.008.038-.01.047-.007.035-.011.054-.006.029-.017.081,0,.023-.013.06-.007.031-.012.056-.006.029-.014.066,0,.017-.017.083-.005.024-.013.06-.007.032-.011.052-.007.034-.011.054-.012.056-.011.05-.01.047-.007.031-.012.054,0,.02-.069.319-1.955-.421C373.988,228.831,374.191,227.852,374.383,226.886Zm-1.251,5.8,1.948.452-.009.04-.005.023-.012.053-.006.027-.012.052-.006.026-.02.085-.01.043-.009.04-.01.044-.009.037-.012.052-.007.031-.019.079-.006.025-.014.057-.007.031-.014.057-.006.026-.04.167-.005.022-.015.062-.007.027-.015.064,0,.018-.02.084,0,.014-.017.069-.007.028-.013.056-.007.03-.014.058-.006.026-.019.078-.009.037-.011.044-.01.041-.009.039-.011.046-.006.026-.044.181,0,.018-.015.063v.005c-.064.262-.128.52-.193.781l-1.941-.483C372.676,234.62,372.91,233.649,373.132,232.69Zm-1.434,5.76,1.933.514-.046.173-.006.021-.016.061-.008.029-.013.048-.023.087-.005.019-.015.054-.006.023-.015.057,0,.015-.054.2v0l-.018.066,0,.009-.075.276v0l-.018.066,0,.01-.056.206h0l-.017.062,0,.016-.017.06,0,.012-.052.19,0,.018-.016.057-.005.019-.016.058,0,.009-.056.2v0q-.106.379-.213.758l-1.924-.545C371.181,240.365,371.445,239.4,371.7,238.451Zm-1.616,5.71,1.915.575q-.12.4-.242.8l-.008.026-.016.053-.01.034-.014.045-.05.164-.006.02-.017.056-.006.018c-.168.547-.343,1.107-.516,1.651L369.2,247C369.5,246.059,369.8,245.1,370.082,244.161Zm-1.8,5.658,1.9.636q-.477,1.423-.976,2.836l-1.886-.666C367.646,251.7,367.971,250.753,368.284,249.82Zm-1.977,5.6,1.875.7q-.211.569-.426,1.137l-.005.013-.025.066-.008.021-.025.067-.005.014-.03.079-.01.026-.02.052-.013.034-.017.045-.014.036-.02.052-.022.058-.014.037-.017.044-.012.032-.018.046-.01.027-.065.17-.007.018-.022.057,0,.012-.075.193v0l-.025.065,0,0-.153.394-1.864-.726C365.609,257.273,365.964,256.34,366.307,255.417Zm-2.154,5.531L366,261.7l-.157.383v0l-.073.178-.011.027-.017.042-.016.039-.015.037-.024.057-.007.018-.033.079-.007.017-.028.067-.007.016-.033.079h0l-.072.172h0q-.324.779-.655,1.554l-1.84-.785C363.4,262.782,363.781,261.86,364.153,260.948Zm-2.329,5.461,1.827.814-.01.022-.02.044-.015.035-.021.046-.014.031-.031.07-.016.036-.018.04-.017.039-.017.037-.017.039-.016.035-.036.08-.011.025-.022.05-.01.022-.024.054,0,.007-.087.192h0c-.257.57-.516,1.136-.779,1.7l0,0-.027.059-.008.017-.02.043-1.814-.843C361.01,268.217,361.423,267.308,361.824,266.409Zm-2.5,5.384,1.8.871q-.2.42-.409.84l0,.007-.039.079v0l-.08.162-.006.013-.034.069-.006.012-.078.159-.007.013-.034.068-.006.012-.08.162,0,0-.038.076,0,.01-.122.246,0,0-.125.25h0l-.167.333,0,0-.083.166-1.786-.9C358.452,273.574,358.894,272.679,359.323,271.793Zm-2.67,5.3,1.772.928h0l-.042.08-.006.012-.033.064-.012.022-.031.059-.009.017-.04.076-.007.014-.033.062-.013.024-.028.053-.013.024-.037.069-.009.016-.032.061-.017.032-.023.044-.016.031-.025.047-.021.039-.03.057-.018.034-.021.039-.019.035-.023.042-.017.032-.036.068-.018.033-.022.041-.019.035-.022.041-.018.033-.036.067-.014.026-.027.051-.015.028-.027.051-.013.025-.037.069,0,.005-.041.076-.008.016-.034.064-.008.014q-.22.41-.443.818l-1.757-.956C355.726,278.848,356.2,277.967,356.653,277.094Zm-2.837,5.215,1.741.983,0,.009-.039.069,0,.006-.09.16,0,0-.042.075,0,.007-.09.158,0,.007-.041.072-.005.01-.089.156-.005.009-.037.065-.011.02-.034.06-.009.016-.041.072-.013.024-.028.05-.018.031-.023.041-.02.034-.027.047-.03.052-.022.038-.023.04-.017.03-.025.043-.013.023-.057.1-.005.009-.03.052-.009.016-.03.052-.007.012-.1.168-.008.014-.03.052-.009.016-.093.16-.013.022-.026.044-.018.03-.023.039-.033.057-.017.028-.032.055-.013.022-.034.058-.009.015-.091.156-1.726-1.011C352.834,284.032,353.332,283.167,353.816,282.309Zm-3,5.122,1.71,1.038-.187.307-.023.037-.016.026c-.445.728-.9,1.46-1.352,2.182l-1.693-1.065C349.779,289.123,350.3,288.274,350.815,287.432Zm-3.161,5.025,1.676,1.091-.078.119,0,0-.155.238h0l-.039.059h0l-.116.176,0,0-.036.055-.007.01-.106.161-.01.015-.031.046-.014.022-.03.046-.009.014-.059.089-.015.022-.027.041-.019.029-.026.039-.022.034-.037.056-.027.04-.023.035-.023.035-.023.035-.025.038-.02.03-.042.063-.021.031-.026.039-.021.032-.027.04-.02.03-.042.063-.023.034-.023.034-.026.038-.019.029-.027.041-.011.016-.065.1-.006.009-.036.053-.006.009-.234.348-1.659-1.118C346.565,294.115,347.117,293.282,347.655,292.457Zm-3.318,4.924,1.641,1.144-.1.15,0,.006q-.8,1.152-1.625,2.291L342.62,299.8C343.2,299,343.773,298.188,344.337,297.38Zm-3.471,4.816,1.6,1.195-.205.275-.012.016-.022.03-.034.045-.013.018q-.7.933-1.408,1.857l-.006.008-.049.064-.007.009-.055.071-1.585-1.22C339.674,303.783,340.277,302.986,340.865,302.2Zm-3.621,4.7,1.566,1.245-.029.037-.017.021-.031.039-.019.024-.032.04-.018.023-.058.073-.018.023-.032.04-.019.024-.032.039-.017.022-.064.08-.013.016-.034.043-.015.018-.036.045-.011.013-.121.151-.008.009-.04.05,0,.006c-.406.5-.806,1-1.217,1.5l-1.546-1.269C336,308.449,336.631,307.672,337.244,306.9Zm-3.767,4.589L335,312.783c-.645.761-1.3,1.522-1.958,2.273l-1.505-1.317C332.189,313,332.84,312.241,333.477,311.49Zm-3.909,4.468,1.484,1.34-.021.024-.015.016-.131.145-.005.006-.041.045-.012.013-.137.151h0l-.041.045-.013.015-.041.045,0,0-.134.147-.012.014-.041.045-.008.008-.128.14-.017.019-.036.039-.017.019-.117.128-.022.025-.032.035-.025.027-.03.032-.051.055-.021.023-.037.04-.022.024-.038.041-.019.021-.057.062,0,0-.057.062-.011.012-.053.058-.006.006-.572.616-1.463-1.364C328.232,317.425,328.908,316.689,329.568,315.958ZM325.52,320.3l1.442,1.386-.11.115-.007.008-.033.034-.031.032-.022.023-.054.056,0,0q-.912.944-1.836,1.875l-1.42-1.409C324.139,321.726,324.837,321.011,325.52,320.3Zm-4.182,4.214,1.4,1.431-.131.128-.005.005q-.536.522-1.075,1.04h0l-.135.129h0l-.062.059-.01.009-.056.054-.009.009-.062.059-.016.015-.043.041-.027.026-.032.031-.031.03-.01.01-.092.087,0,0-.361.342-1.375-1.453C319.913,325.9,320.633,325.2,321.338,324.516Zm-4.312,4.081,1.352,1.474-.014.013-.044.04-.026.024-.036.033-.027.024-.051.046-.032.029-.034.031-.033.03-.027.025-.035.031-.025.022-.067.061-.02.018-.039.035-.02.019-.04.036-.017.016-.08.072-.013.012-.04.036-.019.018-.041.037-.014.013-.137.124-.018.016-.041.037-.017.015-.135.121-.019.017-.039.035-.021.019-.038.035-.017.015-.069.062-.028.026-.033.03-.03.027-.03.027-.049.044-.03.027-.042.037-.025.023-.039.035-.024.021-.061.055,0,0-.061.054-.017.015-.052.046-.012.011-.134.12,0,0-.067.059,0,0-.139.124-1.328-1.5C315.558,329.931,316.3,329.262,317.025,328.6Zm-4.438,3.943,1.3,1.516-.427.366h0l-.061.053-.018.016-.044.038-.024.021-.057.049-.039.033-.02.017-.044.037-.013.011q-.766.653-1.541,1.3l-1.281-1.536C311.079,333.828,311.841,333.182,312.587,332.54Zm-4.56,3.8,1.257,1.556q-.458.37-.917.736h0l-.055.044h0l-.156.124-.016.013-.044.035-.021.016-.08.063-.018.014-.034.027-.033.026-.031.024-.039.031-.026.02-.065.052-.006,0-.063.049-.013.011-.065.051,0,0-.663.521-1.232-1.576C306.479,337.582,307.261,336.961,308.027,336.342ZM303.35,340l1.207,1.595q-.708.536-1.421,1.065l-.008.006-.07.052,0,0-.072.053-.012.009-.055.041-.023.017-.047.035-.024.017-.062.046-.033.025-.031.023-.039.029-.024.018-.215.159h0l-.267.2-1.182-1.614C301.764,341.19,302.565,340.593,303.35,340Zm-4.789,3.508,1.156,1.632q-1.173.831-2.358,1.644l-.007,0-.045.031-.026.018-.025.017-1.13-1.65C296.938,344.647,297.757,344.076,298.561,343.507Zm-4.9,3.355,1.1,1.668-.014.009-.036.024-.061.04-.033.022-.039.026-.03.02-.039.026-.03.02-.064.042-.036.023-.036.023-.035.023-.036.024-.034.022-.035.023-.052.034-.043.028-.039.026-.031.021-.042.027-.028.018-.068.045-.011.007-.061.04-.022.014-.054.035-.018.012-.147.1-.009.006-.067.043-.01.007q-.469.305-.94.608h0l-.076.048,0,0-.151.1-.018.012-.05.032-.016.01-1.078-1.685C292,347.951,292.842,347.406,293.663,346.862Zm-5,3.2,1.051,1.7c-.6.37-1.195.733-1.8,1.1l-.011.007-.054.033-.009.006-.114.069h0l-.043.026-.031.018-.037.022-.041.024-.029.017-.069.041-.022.013-.053.032-.023.014-.058.035-.015.009-.152.091,0,0-1.024-1.718C286.97,351.1,287.824,350.579,288.662,350.062Zm-5.1,3.039,1,1.734q-1.3.747-2.613,1.475l-.969-1.749C281.839,354.083,282.709,353.592,283.563,353.1Zm-5.193,2.877.941,1.765c-.512.273-1.015.538-1.53.807l-.013.007-.056.029-.01,0-.119.062h0l-.046.024-.029.015-.044.023-.027.014-.158.082-.021.011-.05.026-.018.009-.537.277-.913-1.779C276.616,356.905,277.5,356.442,278.37,355.978Zm-5.282,2.711.885,1.793-.584.287-.013.006-.062.03-.023.011-.057.028-.044.022-.045.022-.045.022-.025.012-.051.025-.013.006q-.866.421-1.738.835l-.857-1.807C271.307,359.56,272.205,359.126,273.089,358.69Zm-5.364,2.542.828,1.821-.474.215-.023.011-.039.017-.045.02-.027.012-.074.033h0l-.171.077h0l-.513.229h0l-.08.036-.009,0-.077.034-.005,0-.079.035-.025.011-.049.022-.039.017-.031.014c-.325.144-.653.288-.978.429l-.8-1.834C265.915,362.046,266.828,361.64,267.725,361.232Zm-5.442,2.371.77,1.846-.082.034-.007,0-.077.032-.043.018-.027.011-.058.024-.007,0c-.49.2-.971.4-1.463.6l-.02.008-.052.021-.053.021-.039.016-.059.024-.02.008-.071.029-.007,0-.694.278-.74-1.858C260.449,364.358,261.373,363.982,262.282,363.6Zm-5.516,2.2.71,1.87-.57.215-.02.008-.05.019-.029.011-.046.017-.045.017-.051.019-.054.02-.03.011-.054.02-.026.01-.071.027-.008,0-.084.031-.011,0-.072.027-.016.006-.076.028-.005,0-.172.064-.006,0-.081.03,0,0-.259.1-.007,0-.256.094-.012,0-.074.027-.011,0-.165.06-.023.009-.055.02-.033.012-.044.016-.037.014-.037.013-.085.031-.022.008-.057.021-.012,0-.043.015-.681-1.881C254.91,366.5,255.846,366.149,256.767,365.8Zm-5.581,2.02.651,1.891c-.946.325-1.893.643-2.846.954l-.62-1.9C249.307,368.457,250.254,368.14,251.186,367.819Zm-5.643,1.842.59,1.911q-1.432.442-2.873.862l-.56-1.92C243.645,370.238,244.6,369.952,245.542,369.661Zm-5.7,1.661.529,1.929-.047.013h-.005l-.068.019h0l-.2.055-.013,0-.057.016-.022.006-.055.015-.023.006-.092.025-.035.009-.042.011-.04.011-.041.011-.044.012-.036.01-.077.021-.021.006-.062.017-.029.008-.057.015-.025.007-.077.021h0l-.087.023-.01,0-.076.02-.016,0-.075.02-.009,0-.176.047-.006,0-.082.022-.009,0-.263.069-.013,0-.074.019-.014,0-.084.022h0l-.084.022-.023.006-.058.015-.034.009-.045.012-.04.01-.031.008-.109.028-.008,0-.067.017H237.7l-.222.057-.5-1.937C237.928,371.839,238.893,371.583,239.842,371.322Zm-5.748,1.478.467,1.945-.727.173-.013,0-.067.016-.035.008-.042.01-.046.011-.024.006c-.657.154-1.31.3-1.97.452l-.436-1.952C232.163,373.257,233.137,373.031,234.095,372.8Zm-5.793,1.3.405,1.958-.413.085h0l-.069.014-.008,0-.184.037-.039.008-.041.008-.046.009-.036.007-.064.013-.018,0-.084.017-.019,0-.065.013-.026.005-.065.013-.019,0-.173.034-.017,0-.07.014-.02,0-.077.015h-.007l-.178.035-.012,0-.076.015-.013,0-.27.053h0l-.828.16-.374-1.965C226.358,374.49,227.337,374.3,228.3,374.1Zm-5.833,1.111.343,1.97-.712.122h0l-.055.009-.034.006-.041.007-.062.01-.017,0q-1.014.171-2.032.332l-.312-1.976C220.514,375.539,221.5,375.376,222.468,375.207Zm-5.863.925.281,1.98c-.986.14-1.984.273-2.975.4l-.249-1.984C214.64,376.4,215.631,376.27,216.606,376.132Zm-5.89.74.218,1.988-.227.025-.017,0-.058.006-.027,0-.055.006-.014,0-.1.011-.043,0-.041,0-.045,0-.04,0-.045,0-.039,0-.068.007-.044,0-.051.005-.041,0-.042,0-.044,0-.037,0-.049.005-.017,0-.121.013h-.014l-.061.006-.019,0-.064.006h-.01c-.518.053-1.027.1-1.546.151l-.187-1.991C208.743,377.08,209.737,376.979,210.716,376.872Zm-5.912.554.155,1.994q-.558.043-1.117.084h-.011l-.076.005h-.02l-.069,0-.022,0-.084.006-.032,0-.05,0-.047,0-.035,0-.053,0-.025,0c-.447.031-.905.061-1.353.089l-.124-2C202.827,377.572,203.823,377.5,204.8,377.426Zm-5.926.368.093,2-.71.032h0l-.067,0-.077,0-.082,0-.086,0h-.011l-.079,0h-.013l-.086,0h0q-.889.036-1.78.063l-.062-2C196.9,377.878,197.895,377.84,198.878,377.794Zm-5.933.183.031,2-.516.007h-.506q-.6.006-1.206.008h-.774v-2H190C190.978,378,191.968,377.992,192.945,377.977Zm-8.912-.07c.984.031,1.982.054,2.968.069l-.031,2q-.657-.01-1.312-.025h0l-.187,0h0l-.105,0-.067,0h-.027l-.063,0h-.025l-.105,0-.064,0h-.245l-.189-.005-.08,0-.084,0H184.4l-.216-.006-.07,0H184.1l-.078,0-.05,0Zm-5.932-.277c.983.061,1.981.116,2.966.162l-.093,2-.074,0-.046,0-.049,0h-.032l-.077,0h-.005q-.888-.043-1.774-.094H178.9l-.067,0-.03,0-.053,0-.079,0-.184-.011h-.011l-.071,0h0l-.424-.026Zm-5.918-.463c.98.092,1.975.178,2.958.255l-.156,1.994c-.64-.05-1.276-.1-1.915-.159l-.03,0-.044,0-.046,0-.037,0-.061-.005-.022,0-.18-.016h-.005l-.09-.008h0l-.559-.052Zm-5.9-.648c.976.123,1.968.24,2.947.347l-.219,1.988c-.821-.09-1.645-.186-2.463-.287h-.008l-.07-.009h0l-.206-.026-.022,0-.054-.007-.032,0-.047-.006-.044-.006-.031,0Zm-5.879-.835c.973.154,1.96.3,2.936.44l-.281,1.98-.51-.073-.013,0-.065-.009h-.01l-.206-.03-.011,0-.059-.009-.022,0-.057-.008-.024,0-.187-.028-.022,0-.052-.008-.031,0-.051-.008-.033,0-.049-.007-.026,0-.1-.014-.036-.005-.044-.007-.04-.006-.043-.006-.047-.007-.036-.005-.079-.012-.031,0-.054-.008-.032,0-.056-.009-.03,0-.067-.01-.017,0-.085-.013-.021,0-.068-.01-.021,0-.07-.011-.016,0-.269-.042h-.007l-.274-.043Zm-5.848-1.02c.968.185,1.951.364,2.921.533l-.344,1.97c-.988-.172-1.97-.352-2.953-.539Zm-5.811-1.2c.96.215,1.936.425,2.9.625l-.406,1.958-.734-.154h0l-.271-.058-.007,0-.085-.018h0q-.916-.2-1.828-.4Zm-5.773-1.389c.954.246,1.923.487,2.88.717l-.468,1.944c-.382-.092-.761-.184-1.142-.279l-.022-.005-.05-.012-.033-.008-.045-.011-.049-.012-.031-.008-.08-.02-.023-.006-.065-.016-.02,0-.075-.019-.009,0-.815-.206h0l-.079-.02-.021-.005-.063-.016-.025-.006-.058-.015-.078-.02-.017,0-.066-.017h0l-.041-.011Zm-5.724-1.572c.946.276,1.907.548,2.857.809l-.53,1.929q-1.449-.4-2.888-.818Zm-5.67-1.753c.936.306,1.887.608,2.828.9l-.591,1.911q-1.434-.443-2.858-.908Zm-5.614-1.933c.926.335,1.867.668,2.8.989l-.651,1.891q-.663-.228-1.324-.462l-.023-.008-.051-.018-.046-.016-.024-.008c-.451-.16-.91-.324-1.36-.487Zm-5.549-2.11c.915.365,1.846.727,2.767,1.078l-.711,1.869-.875-.335,0,0-.074-.029-.018-.007-.067-.026-.016-.006-.076-.029-.037-.014-.039-.015-.045-.018-.028-.011-.05-.019,0,0-.127-.049-.006,0-.06-.024-.012,0-.061-.024h0l-.194-.076-.011,0-.058-.023-.015-.006-.174-.069-.024-.01-.046-.018-.036-.014-.04-.016-.054-.021-.032-.013-.067-.027-.021-.008-.065-.026-.014-.006-.342-.136Zm-5.478-2.285c.9.394,1.821.785,2.73,1.164l-.77,1.846q-1.385-.578-2.759-1.177Zm-5.4-2.459c.89.422,1.8.843,2.692,1.251l-.828,1.82q-.6-.271-1.19-.547l-.007,0-.075-.035-.009,0-.081-.038-.009,0-.066-.031-.03-.014-.043-.02-.038-.017-.034-.016-.166-.077-.006,0c-.321-.15-.647-.3-.967-.455Zm-5.323-2.629c.876.45,1.768.9,2.652,1.336l-.886,1.793h0q-.672-.332-1.34-.668l0,0-.078-.039-.005,0-.159-.08-.022-.011-.05-.025-.033-.017-.038-.019-.163-.083,0,0-.781-.4Zm-5.236-2.8c.861.477,1.738.955,2.607,1.418l-.942,1.764-.7-.375,0,0-.186-.1h0l-.053-.029-.019-.01-.051-.028-.013-.007-.165-.089-.023-.012-.049-.027-.016-.009-.17-.093-.011-.006-.056-.03-.01-.006-.182-.1h0l-.059-.032-.008,0-.243-.133-.009,0-.057-.031-.01-.006-.109-.06-.01-.005-.041-.023-.033-.018-.037-.021-.044-.024-.026-.014-.075-.041,0,0-.077-.043,0,0L98,356.283Zm-5.146-2.961c.846.5,1.708,1.009,2.561,1.5l-1,1.734q-.526-.3-1.05-.608l-.009-.005-.072-.042-.006,0-.077-.045-.011-.007-.06-.035-.025-.015-.051-.03L94.007,354l-.07-.041-.021-.012-.051-.03-.03-.018-.043-.025-.032-.019-.056-.033-.03-.018-.053-.031-.031-.018-.043-.025-.03-.018-.054-.032-.018-.01-.071-.042-.022-.013-.054-.032-.022-.013-.066-.039-.005,0-.078-.046-.005,0-.074-.044-.006,0-.239-.142Zm-5.05-3.121c.83.531,1.675,1.063,2.513,1.581l-1.052,1.7-.284-.176-.006,0-.051-.031-.03-.019-.035-.022-.071-.044-.006,0-.075-.047h0q-.991-.617-1.974-1.247l-.007,0Zm-4.949-3.279c.812.557,1.64,1.115,2.461,1.659l-1.1,1.667-.507-.337-.025-.017-.036-.024-.037-.025-.03-.02-.063-.042,0,0-.073-.049-.014-.01-.062-.041-.012-.008-.151-.1h0l-.073-.049-.01-.007-.15-.1h0l-.071-.048-.014-.009-.061-.041-.013-.009-.072-.048L83.7,347.5l-.055-.037-.032-.022-.035-.024-.036-.024-.026-.017-.157-.106h0l-.656-.448Zm-4.844-3.434c.795.582,1.6,1.166,2.408,1.736l-1.157,1.632c-.427-.3-.843-.6-1.268-.907l0,0-.051-.037-.014-.01-.049-.035-.005,0-.088-.063-.031-.022L78.694,344l-.041-.029-.024-.017-.142-.1-.007,0-.071-.051h0l-.605-.442Zm-4.733-3.584c.776.607,1.567,1.216,2.352,1.811L75.4,341.56q-.744-.564-1.483-1.134l-.015-.012-.056-.043-.014-.011-.068-.052-.012-.009-.054-.042-.024-.019-.044-.034-.023-.018-.062-.048-.013-.01-.057-.045-.021-.016-.051-.04-.016-.013-.142-.11h0l-.221-.173Zm-4.618-3.731c.756.631,1.528,1.265,2.294,1.884l-1.257,1.556q-.936-.756-1.859-1.522h0l-.049-.041-.019-.015-.039-.032-.06-.05-.012-.01-.06-.05-.006,0-.213-.178Zm-4.5-3.875c.736.655,1.488,1.312,2.234,1.955l-1.305,1.515q-.553-.477-1.1-.959h0l-.052-.045,0,0-.155-.136,0,0-.05-.044-.006-.005q-.442-.388-.881-.778Zm-4.375-4.014c.715.677,1.446,1.358,2.172,2.024l-1.352,1.474-.586-.54-.012-.011-.043-.04-.013-.012-.132-.123-.022-.021-.036-.033-.026-.025-.033-.03-.045-.042-.035-.033-.036-.034-.027-.025-.035-.032-.027-.025-.047-.044-.03-.028-.041-.038-.027-.025-.035-.033-.027-.025-.041-.039-.034-.032-.043-.04-.028-.026-.032-.03-.031-.029-.029-.027-.061-.057-.023-.021-.039-.037-.018-.017-.041-.038-.014-.013-.445-.42Zm-4.247-4.149c.694.7,1.4,1.4,2.107,2.091l-1.4,1.431-.559-.549-.013-.013-.042-.041-.011-.01-.07-.069L56.5,325.2l-.028-.028-.034-.034-.025-.025-.054-.053-.01-.009-.053-.053-.02-.02-.044-.043-.018-.018-.057-.057,0,0-.062-.062-.011-.011-.052-.051-.013-.013-.06-.06h0l-.063-.063-.01-.01-.052-.052-.013-.013-.055-.054-.007-.007-.062-.062-.009-.009-.052-.052-.016-.016-.047-.047-.014-.014-.06-.06-.013-.013-.047-.047-.021-.021-.04-.04-.022-.022L55.3,324l-.018-.018-.04-.04-.027-.027-.032-.032-.028-.029-.03-.031-.026-.026Zm-4.114-4.28c.671.721,1.358,1.446,2.04,2.156L53,321.648l-.017-.018-.037-.039-.022-.023-.041-.043-.017-.017-.06-.062,0,0-.057-.06-.012-.013-.055-.057,0,0q-.874-.914-1.736-1.839ZM48.424,313.7c.648.741,1.312,1.488,1.972,2.219l-1.485,1.34q-.377-.417-.751-.837l0,0-.053-.059-.015-.017-.041-.046-.018-.021-.052-.059-.025-.028-.028-.032-.032-.036-.021-.024-.033-.038-.012-.013-.083-.093,0,0-.045-.05,0,0c-.26-.293-.515-.584-.773-.879Zm-3.837-4.53c.625.761,1.264,1.529,1.9,2.28l-1.526,1.293c-.649-.766-1.284-1.528-1.921-2.3Zm-3.693-4.648c.6.781,1.216,1.567,1.828,2.339L41.156,308.1l-.342-.432-.013-.016-.041-.052-.015-.018-.046-.059-.033-.042-.015-.019-.037-.047-.007-.008c-.349-.444-.694-.886-1.039-1.333l-.015-.02-.03-.039-.028-.036-.019-.025-.052-.068,0-.006-.053-.069v0l-.057-.074Zm-3.545-4.762c.576.8,1.166,1.605,1.754,2.4l-1.6,1.194-.445-.6-.005-.007L37,302.674l-.006-.008-.106-.144-.008-.011-.042-.057-.014-.019-.042-.058-.008-.012-.049-.067-.017-.023-.032-.043-.022-.03-.027-.036-.024-.033-.038-.052-.035-.049-.016-.022-.033-.045-.012-.016c-.246-.336-.5-.684-.741-1.022Zm-3.393-4.871c.55.817,1.115,1.641,1.678,2.449l-1.641,1.143q-.455-.653-.905-1.311v0l-.045-.065-.016-.023-.031-.045L32.974,297l-.03-.044L32.9,296.9l-.015-.023-.031-.046-.013-.018-.149-.22-.009-.014-.034-.051-.005-.008-.064-.095-.013-.02-.026-.038-.023-.035L32.5,296.3l-.043-.064h0L32.3,296Zm-3.238-4.976c.524.834,1.062,1.675,1.6,2.5L30.639,293.5l-.408-.629h0l-.046-.072-.007-.011-.047-.073v0l-.048-.075-.007-.011-.039-.061-.012-.019-.042-.065,0-.007-.049-.077h0l-.047-.074-.006-.009-.047-.074h0q-.4-.632-.8-1.267Zm-3.08-5.076c.5.85,1.009,1.708,1.52,2.55l-1.71,1.038c-.347-.572-.7-1.159-1.04-1.735l-.007-.012-.03-.05-.012-.02-.028-.047-.013-.023-.047-.079-.018-.031-.022-.037-.022-.038-.019-.032-.032-.055-.01-.016-.042-.071-.012-.021-.034-.058-.009-.016-.138-.235h0Zm-2.917-5.17c.47.865.954,1.739,1.438,2.6l-1.742.983q-.737-1.306-1.454-2.624Zm-2.753-5.26c.443.879.9,1.768,1.355,2.64l-1.772.927q-.673-1.286-1.327-2.583l0-.005-.035-.069-.005-.011Zm-2.585-5.345c.415.893.842,1.8,1.271,2.683l-1.8.871-.27-.562,0-.006-.026-.054-.01-.021-.024-.05-.012-.025-.037-.077-.017-.037-.019-.039-.018-.038-.017-.037-.021-.043-.015-.032-.033-.07-.015-.031-.021-.045-.016-.034-.021-.045-.015-.031-.033-.07-.016-.034-.02-.042-.018-.037-.018-.037-.018-.039-.019-.04-.031-.066-.017-.036-.02-.042-.016-.033L18,270.82l-.016-.034-.039-.082-.011-.024-.022-.046-.013-.028-.021-.045-.015-.031-.02-.043-.015-.033-.033-.071-.018-.039-.016-.035-.022-.046-.014-.03-.035-.074,0-.007-.033-.072-.009-.019-.031-.066-.006-.012-.037-.08Zm-2.413-5.423c.386.906.785,1.821,1.185,2.721l-1.827.813q-.565-1.27-1.112-2.548v0l-.025-.059-.008-.018-.022-.052-.013-.03-.017-.041Zm-2.24-5.5c.357.918.726,1.845,1.1,2.757l-1.852.755c-.323-.793-.639-1.585-.952-2.383l0-.012-.023-.06,0,0-.037-.1-.017-.044-.013-.032-.021-.054-.009-.022-.031-.079Zm-2.064-5.566c.328.929.668,1.868,1.01,2.792l-1.875.7q-.186-.5-.369-1v0l-.073-.2,0,0-.02-.056-.008-.023-.019-.052L11.3,254.7l-.041-.113,0-.008-.017-.046-.012-.033-.016-.044-.013-.035-.015-.043-.015-.041-.024-.068-.014-.04-.015-.042-.012-.034-.016-.045-.011-.03-.037-.1,0-.01-.019-.054-.008-.022-.02-.055-.005-.015-.2-.577Zm-1.886-5.628c.3.939.608,1.888.921,2.822l-1.9.635q-.356-1.063-.7-2.131l0-.011-.026-.081v0l-.025-.079-.013-.04-.012-.036-.017-.052,0-.015-.128-.4ZM9.073,241.26c.268.947.547,1.906.83,2.849l-1.916.575q-.43-1.435-.839-2.879Zm-1.524-5.738c.238.956.487,1.924.74,2.876l-1.933.514Q5.97,237.462,5.607,236Zm-1.34-5.781c.207.963.425,1.937.647,2.9l-1.948.452,0-.018-.013-.058,0-.02q-.327-1.412-.632-2.831Zm-1.156-5.822c.176.968.363,1.949.555,2.914l-1.962.39q-.292-1.469-.561-2.945ZM4.08,218.06c.146.975.3,1.962.463,2.933l-1.973.327c-.14-.844-.273-1.684-.4-2.532v0l-.032-.212,0-.01-.009-.058,0-.027-.008-.052-.005-.034-.006-.037Zm-.786-5.883c.115.979.239,1.97.37,2.946l-1.982.265q-.055-.415-.109-.83l0-.02-.008-.062,0-.033-.006-.049,0-.038-.005-.042-.012-.092,0-.024-.007-.058,0-.02-.008-.064v-.009c-.044-.347-.085-.682-.127-1.03V213l-.008-.064,0-.018-.007-.061,0-.038-.007-.06-.008-.068,0-.016-.01-.082v0l-.022-.186Zm-.6-5.906c.084.981.177,1.975.277,2.954l-1.99.2c-.03-.3-.06-.6-.089-.9v0l-.007-.068v-.015l-.006-.063,0-.018-.009-.094,0-.045,0-.035-.005-.053,0-.032-.006-.061,0-.023q-.074-.789-.142-1.579Zm-.414-5.924c.053.984.115,1.981.184,2.963l-2,.14v-.018l0-.05,0-.038,0-.047-.005-.073,0-.042,0-.047,0-.037,0-.049,0-.034,0-.049,0-.034-.006-.087,0-.039,0-.044,0-.04,0-.045,0-.041,0-.043,0-.046,0-.038L.4,202.427l0-.028,0-.059,0-.031,0-.059,0-.027,0-.07v-.017l-.011-.178v-.013l0-.079v-.012l-.005-.088h0q-.031-.513-.06-1.027v-.008l0-.08v-.016l0-.076v-.014l0-.087v0Zm-.229-5.934c.023.986.053,1.985.091,2.97l-2,.077c-.032-.825-.058-1.645-.08-2.473v-.017l0-.06v-.081l0-.085v-.011l0-.084v0q0-.093,0-.186ZM.006,188.455l2,.016C2,188.978,2,189.493,2,190c0,.48,0,.967.005,1.446l-2,.015c0-.006,0-.019,0-.026v-.062c0-.006,0-.007,0-.013q0-.039,0-.079v-.006q0-.453,0-.906v-.014q0-.036,0-.072c0-.006,0-.017,0-.023v-.089c0-.02,0-.041,0-.062v-.025q0-.043,0-.085H0q0-.044,0-.088v-.028c0-.02,0-.04,0-.061s0-.02,0-.032,0-.039,0-.059,0-.017,0-.03,0-.055,0-.082c0-.006,0-.017,0-.024q0-.034,0-.068c0-.006,0-.027,0-.033s0-.037,0-.055,0-.022,0-.035v-.057c0-.013,0-.018,0-.031q0-.042,0-.085c0-.006,0-.018,0-.025v-.187q0-.03,0-.06v-.027q0-.043,0-.087v-.09c0-.006,0-.019,0-.025q0-.033,0-.066c0-.006,0-.018,0-.024q0-.041,0-.081v-.007Q.006,188.5.006,188.455Zm.141-6,2,.078c-.038.985-.07,1.984-.093,2.97l-2-.047c.006-.267.013-.54.021-.808v-.017l0-.054v-.164l0-.081v-.013l0-.076v-.025l0-.064v-.026l0-.067v-.02q0-.09.006-.18v0l0-.085v-.016l0-.077v-.013q0-.137.009-.274v-.005l0-.088v0Q.131,182.877.147,182.457Zm.327-5.989,2,.14c-.069.982-.131,1.979-.185,2.962l-2-.109q.026-.467.053-.934v-.008l0-.082v-.011l.005-.083v-.008l.005-.09v-.013l0-.071,0-.033,0-.051,0-.04,0-.043,0-.044,0-.034.006-.1,0-.025,0-.058v-.021l0-.062v-.013q.038-.586.079-1.171Zm.515-5.978,1.99.2c-.1.979-.193,1.973-.278,2.954l-1.993-.172c.031-.357.063-.715.1-1.072l0-.037,0-.037.005-.055,0-.027.007-.072v-.012q.065-.7.135-1.394v0l.008-.082,0-.016.007-.071,0-.02.006-.058Zm.7-5.96,1.982.266c-.131.976-.256,1.967-.371,2.946l-1.986-.234c.021-.174.04-.338.061-.511v-.011l.008-.065,0-.015.022-.182,0-.039,0-.04.006-.046,0-.037.007-.06,0-.023.011-.087v0l.01-.084,0-.015.009-.076,0-.014Q1.581,165.363,1.692,164.53Zm.89-5.933,1.973.328c-.162.972-.318,1.958-.464,2.933l-1.978-.3c.04-.264.079-.522.12-.786l0-.011.01-.062,0-.025.008-.053.012-.078,0-.02.011-.069,0-.02.012-.075v-.009Q2.437,159.474,2.583,158.6Zm1.078-5.9,1.961.391c-.192.965-.379,1.946-.556,2.914L3.1,155.642l.025-.139,0-.02.01-.055.005-.028.009-.051.007-.036.013-.073.009-.049.007-.038.008-.045.007-.039.009-.047.007-.036.012-.066.008-.04.01-.055.007-.037.009-.046.008-.04.008-.044.007-.039.009-.05.014-.073.006-.033.009-.05.006-.03.01-.053,0-.021.038-.2V154.1l.013-.065,0-.011c.085-.443.172-.888.26-1.33Zm1.265-5.866,1.948.453c-.223.959-.441,1.934-.649,2.9l-1.955-.422q.086-.4.173-.794v0l.014-.063,0-.019.013-.057.006-.027.018-.081.01-.044.008-.037.011-.05.007-.03.014-.063,0-.019.039-.177v0Q4.756,147.559,4.926,146.83Zm1.451-5.822,1.933.514c-.253.952-.5,1.92-.741,2.876l-1.941-.483c.087-.351.173-.689.262-1.039l0-.01.016-.063.006-.023.019-.072.015-.058.007-.026.017-.065,0-.016Q6.172,141.775,6.376,141.008Zm1.635-5.771,1.915.576c-.283.943-.563,1.9-.831,2.848l-1.924-.545q.152-.538.308-1.074l0-.016.02-.07,0-.016.024-.082.007-.023.016-.055.012-.041.011-.037.014-.047.007-.025.054-.184,0-.01.019-.065v0C7.787,135.986,7.9,135.616,8.011,135.237Zm1.818-5.719,1.9.636c-.313.934-.623,1.883-.922,2.821L8.9,132.37q.112-.353.226-.705l.006-.02.021-.065.006-.019.026-.08.008-.025.018-.055.012-.036.014-.045.012-.036.017-.051.014-.043.02-.061.011-.035.015-.047.01-.032.019-.057.008-.023.027-.083v0l.027-.082,0-.011.027-.083h0Q9.635,130.1,9.829,129.518Zm2-5.657,1.875.7c-.343.924-.683,1.863-1.012,2.792l-1.886-.666c.206-.583.412-1.156.623-1.736v0l.023-.062,0-.012.069-.188,0-.011.02-.054.008-.021.02-.054.008-.021.061-.166.012-.033.016-.044.013-.034.016-.044.017-.045.02-.055.018-.049.013-.035.017-.046.012-.033.02-.055Zm2.177-5.59,1.852.755c-.372.912-.742,1.839-1.1,2.756l-1.864-.726Q13.439,119.659,14.006,118.271Zm2.355-5.519,1.827.814c-.4.9-.8,1.815-1.186,2.721l-1.84-.785c.177-.416.358-.834.538-1.248l0-.008.027-.061,0-.006.081-.185.007-.015.024-.055.008-.018.081-.186v0l.027-.062,0-.008C16.1,113.347,16.226,113.054,16.36,112.752Zm2.529-5.441,1.8.872c-.429.887-.857,1.789-1.272,2.682l-1.814-.843Q18.235,108.661,18.889,107.311Zm2.7-5.357,1.772.928c-.457.872-.913,1.76-1.356,2.64l-1.786-.9q.422-.837.852-1.67h0l.085-.164,0-.008.035-.068.01-.019.032-.061.009-.017.038-.074.012-.024.026-.05.018-.034.02-.037.02-.039.012-.024.051-.1.006-.012.029-.055.006-.012Zm2.868-5.271,1.741.984c-.484.858-.969,1.731-1.44,2.6L23,99.307l.065-.12.005-.01.029-.054.014-.025.029-.054.032-.059.012-.021.033-.06.009-.016.131-.238v0l.27-.489,0-.006.039-.071.006-.011.042-.077h0l.043-.078.008-.015.032-.058.014-.025.029-.053.013-.023.039-.07.016-.029.025-.044.018-.033.023-.042L24,97.491l.038-.068.015-.027.025-.045.019-.034.023-.041.018-.031.034-.06.01-.017.039-.069.01-.019.035-.062L24.276,97Zm3.033-5.177L29.2,92.545c-.511.842-1.023,1.7-1.521,2.55l-1.726-1.011Q26.711,92.788,27.49,91.507Zm3.195-5.078L32.36,87.52c-.538.825-1.076,1.666-1.6,2.5l-1.693-1.065.021-.034h0l.151-.239,0-.006.15-.237,0,0c.367-.579.741-1.162,1.114-1.737l.008-.012.03-.046.018-.027.026-.04.041-.064.011-.016.038-.058Zm3.354-4.975L35.679,82.6c-.563.808-1.128,1.632-1.679,2.448l-1.658-1.118q.6-.894,1.215-1.78v0l.05-.073,0,0,.051-.074.007-.01.04-.058.018-.025.03-.043.021-.031.021-.03.057-.081.009-.013.035-.05.008-.012Zm3.509-4.867,1.6,1.2c-.589.79-1.179,1.6-1.755,2.394l-1.622-1.17q.384-.532.771-1.062h0l.105-.144.015-.02.035-.048.018-.024.032-.044.04-.054.023-.031.031-.042.015-.021.034-.046.008-.011.333-.451,0,0,.119-.16.01-.014.03-.041.023-.03.025-.034.1-.138Zm3.66-4.754,1.565,1.245c-.613.771-1.228,1.557-1.829,2.338L39.359,74.2l.341-.442.008-.01.044-.057.014-.018.042-.054.012-.015.05-.064.02-.025.031-.04.024-.03.028-.037L40,73.373l.046-.059.025-.032.027-.035.025-.032.028-.036.023-.029.048-.061.019-.024.033-.043.021-.027.034-.043.017-.022.052-.066,0-.005.05-.063.012-.015.046-.058.008-.01.113-.143,0,0,.056-.071v0l.519-.655ZM45.015,67.2l1.526,1.293c-.637.751-1.277,1.518-1.9,2.279L43.093,69.5l.33-.4.012-.015.032-.039.025-.03.025-.031.051-.062.006-.007.051-.061.01-.012.052-.063,0,0q.356-.43.715-.857l.011-.013.045-.053.014-.017.04-.048.047-.056.013-.015.043-.051h0l.4-.468Zm3.951-4.515,1.484,1.341c-.66.731-1.324,1.477-1.973,2.219l-1.505-1.317.334-.381.018-.02.031-.036.037-.042.015-.017.058-.066.006-.007.057-.064,0,0q.4-.455.806-.907l0,0,.119-.133.014-.015.043-.048.019-.022.038-.043.019-.021.05-.056L48.677,63l.02-.022.038-.042.009-.01.224-.248Zm4.091-4.389L54.5,59.679c-.683.71-1.37,1.435-2.041,2.155L51,60.47l.094-.1.012-.013.04-.043.013-.014.122-.13.023-.025.032-.034.023-.025.034-.036,0-.005.077-.082.022-.023.035-.038.019-.02.037-.039.007-.008.081-.086.013-.014.042-.044.009-.009c.44-.466.879-.928,1.324-1.39Zm4.227-4.258,1.4,1.431c-.7.688-1.414,1.391-2.108,2.09l-1.419-1.409.065-.065,0,0,.193-.194.008-.008.061-.061,0,0,.131-.131,0,0,.065-.065h0q.6-.6,1.2-1.187h0l.061-.06.008-.008.059-.058.016-.016.044-.043.038-.037.013-.013.161-.158Zm4.359-4.123,1.352,1.474c-.726.666-1.457,1.346-2.172,2.023l-1.375-1.453.025-.023.016-.015.04-.038.018-.017.069-.065.024-.023.034-.032.027-.025.033-.031.031-.029.052-.049.031-.029.034-.032.025-.024.035-.033.023-.022.084-.079,0,0,.041-.038.018-.017.04-.037.017-.015.141-.132.006-.005.049-.045,0,0c.347-.324.687-.639,1.037-.961l.009-.008.045-.042.012-.011L61.547,50l.018-.017.028-.026.037-.034Zm4.486-3.984,1.3,1.516c-.747.642-1.5,1.3-2.235,1.954L63.87,47.9l.176-.156.009-.008L64.1,47.7l.011-.01.137-.121.024-.022.036-.032.028-.024.033-.029.044-.039.044-.039.03-.026.032-.028.031-.028.031-.027.046-.04.038-.034.034-.03.032-.028.031-.027.031-.027.033-.029.057-.05.027-.023.037-.032.022-.019.04-.035.014-.012.144-.126.01-.009.048-.042,0,0C65.532,46.442,65.827,46.186,66.129,45.926Zm4.609-3.842,1.256,1.556c-.766.619-1.538,1.252-2.295,1.883l-1.281-1.536.169-.141.017-.014.04-.033.06-.05.009-.007.061-.051.008-.007q.467-.387.936-.771h0l.072-.059h0l.07-.058.012-.01.051-.041.03-.024.03-.024.039-.031.006,0,.709-.575Zm4.727-3.7,1.207,1.595c-.785.594-1.577,1.2-2.353,1.81l-1.232-1.576q.627-.49,1.258-.975l.006,0,.064-.049.012-.01.138-.106.02-.015.047-.036.026-.02.04-.031.028-.022.045-.034.056-.043.019-.015.046-.035.013-.01Zm4.841-3.544,1.156,1.632c-.8.569-1.614,1.153-2.409,1.735L77.871,36.6l.1-.077.018-.013.043-.031.035-.026.038-.028.055-.04.024-.017.048-.035.021-.015.065-.047,0,0,.074-.054,0,0,.066-.048.012-.009.218-.158.008-.006.068-.049.006,0,.145-.1.013-.009L79,35.777l.012-.008.072-.052h0l.066-.048.023-.017.045-.032.028-.02.044-.032.049-.035.035-.025.041-.029.025-.018.044-.031.014-.01c.266-.191.54-.385.807-.575Zm4.95-3.39,1.1,1.668c-.821.544-1.649,1.1-2.462,1.658l-1.13-1.65q1.238-.848,2.488-1.675Zm5.055-3.233,1.051,1.7c-.838.518-1.684,1.049-2.514,1.58L87.77,29.819l.6-.382.01-.006.049-.031.024-.015.042-.027.053-.034.033-.021.05-.032.025-.015.052-.033.019-.012.152-.1h0Q89.593,28.665,90.311,28.222Zm5.154-3.071,1,1.734c-.854.491-1.716,1-2.562,1.5l-1.024-1.718q.966-.576,1.939-1.14h0l.07-.041.024-.014.045-.026.035-.02.016-.009.459-.265Zm5.249-2.907.941,1.765c-.869.463-1.746.94-2.608,1.417l-.969-1.75.022-.012.033-.018.037-.021.056-.031.035-.019.051-.028.027-.015.05-.028.024-.013.072-.04h0l.077-.042.016-.009.061-.034.017-.009.071-.039.005,0,.08-.044,0,0,.075-.041.01-.005.24-.131,0,0,.079-.043h0l.163-.089h0l.08-.044h0l.164-.089h0l.078-.042.008,0,.161-.087h0l.075-.041.014-.008.065-.035.014-.008.077-.042.006,0,.069-.037.022-.012.054-.029.024-.013.06-.032.027-.014.059-.032.034-.018.037-.02.04-.022.028-.015.12-.064Zm5.339-2.74.885,1.794c-.883.436-1.776.885-2.652,1.335l-.913-1.779q.875-.449,1.755-.889h0l.077-.038.009,0,.16-.08.012-.006.066-.033.018-.009.067-.033.011-.005.079-.039.013-.006.063-.031.025-.012.055-.027.022-.011.076-.038.011-.005.066-.033.024-.012.055-.027Zm5.421-2.568.828,1.821c-.9.407-1.8.828-2.692,1.249l-.856-1.807q.592-.28,1.186-.557l0,0Q110.705,17.285,111.473,16.936Zm5.5-2.4.769,1.846c-.909.379-1.827.77-2.73,1.163l-.8-1.834.257-.112h0l.078-.034.011,0,.163-.07.018-.008.06-.026.025-.011.055-.024.025-.011.074-.032.028-.012.047-.02.039-.017.037-.016.042-.018.027-.011.092-.039.022-.009.05-.021.024-.01.052-.022.016-.007.179-.076.012-.005.059-.025.009,0,.193-.082h0l.062-.026.009,0,.261-.11h0l.332-.139,0,0,.262-.11.006,0,.127-.053Zm5.575-2.22.71,1.87c-.921.35-1.852.712-2.767,1.076l-.74-1.858.033-.013.017-.007c.909-.361,1.831-.72,2.747-1.068Zm5.641-2.041.65,1.891c-.931.32-1.873.652-2.8.987l-.68-1.881q.837-.3,1.677-.6h0l.26-.091.012,0,.077-.027.008,0,.168-.059.018-.006.065-.023.021-.007.075-.026.006,0,.084-.029.015-.005.068-.023.019-.007.069-.024.014,0,.168-.058Zm5.7-1.86.59,1.911c-.941.29-1.892.592-2.828.9l-.62-1.9.029-.009.007,0q1.2-.393,2.415-.769l.023-.007.048-.015.042-.013.033-.01Zm5.761-1.678.529,1.929c-.95.26-1.912.532-2.857.808l-.559-1.92.893-.258.015,0,.073-.021.015,0,.084-.024.009,0,.072-.02.027-.008.055-.016.031-.009.056-.016.026-.007.077-.022.033-.009.049-.014.035-.01.048-.013.034-.01.075-.021.015,0,.071-.02.025-.007.061-.017.023-.006.075-.021.007,0,.176-.049.006,0Zm5.81-1.493.467,1.945c-.958.23-1.927.471-2.88.716l-.5-1.937.724-.184h0l.173-.044.022-.006.06-.015.03-.008.051-.013.035-.009.048-.012.08-.02.023-.006.058-.014.017,0c.422-.105.838-.208,1.262-.31l.027-.007.045-.011.049-.012.03-.007ZM151.32,3.94l.405,1.959c-.964.2-1.94.409-2.9.624l-.436-1.952.407-.091.031-.007.04-.009.051-.011.028-.006Q150.131,4.186,151.32,3.94Zm5.9-1.122.343,1.97c-.971.169-1.954.348-2.922.532l-.374-1.965.456-.086.009,0,.078-.015.014,0,.087-.016h.005l.075-.014.041-.008.04-.007.048-.009.029-.005c.65-.121,1.3-.237,1.948-.351h.008l.058-.01.027,0Zm5.925-.934.28,1.98c-.975.138-1.963.286-2.936.439l-.312-1.976h0l.083-.013.021,0,.066-.01.025,0,.066-.01.019,0,.268-.042h.006Q161.934,2.055,163.141,1.884Zm5.953-.747.218,1.988c-.979.107-1.97.224-2.946.346l-.249-1.984h0l.081-.01.014,0,.079-.01h.011l.18-.022h.007l.083-.01h.01l.087-.011h0Q167.881,1.27,169.094,1.137Zm5.975-.559.155,1.994c-.982.076-1.978.162-2.958.253L172.079.834c.575-.054,1.142-.1,1.718-.153h.006l.07-.006h.008l.112-.009.036,0,.036,0,.054,0,.028,0,.069-.006h.014Zm5.989-.371.093,2c-.985.046-1.983.1-2.966.161l-.124-2,.748-.045h0L178.9.319h0Q179.978.257,181.057.207Zm6-.184.03,2c-.985.015-1.984.038-2.967.068l-.061-2c.394-.012.776-.023,1.17-.032h.155l.084,0q.744-.017,1.49-.029h.1Z" transform="translate(1123 251.809)" fill="#fff"></path><path d="M79.5,0h.643q.963.008,1.919.038h.03l.063,0h.119l.061,0h.027L82.5.056l-.074,2C81.457,2.018,80.473,2,79.5,2V0Zm5.995.223.164.012h0l.041,0h.006l.028,0,.033,0,.036,0,.031,0h.005c.641.051,1.277.109,1.914.174h0l.062.006h0l.028,0h0l.058.006h.007l.023,0h.007l.028,0,.027,0,.029,0h.011l.025,0,.028,0,.027,0,.016,0h0l.038,0,.026,0h.008l.061.007h0l.02,0h0l.066.007h0L88.483.5l-.223,1.987c-.964-.108-1.944-.2-2.913-.272Zm5.961.67.026,0h.006l.023,0h.007l.025,0h0l.029,0h0l.024,0h.007l.026,0h0l.03,0h0l.028,0h0l.028,0h0l.061.009h0q1.317.2,2.621.452l-.373,1.965c-.953-.181-1.923-.346-2.883-.491ZM97.35,2.012q1.24.285,2.464.607h0l.025.007.006,0,.024.006h0l.027.007.008,0,.018,0,.011,0,.014,0,.057.015h0l.021.006h0l.224.06-.521,1.931c-.937-.253-1.891-.491-2.837-.708Zm5.792,1.563q1.437.447,2.847.945l-.666,1.886c-.915-.323-1.848-.633-2.774-.921l.594-1.91Zm5.656,2,.345.138.006,0,.017.007.007,0,.016.006.013.005.02.008.015.006.01,0,.016.007.009,0,.052.021,0,0,.024.01h0c.346.14.69.283,1.034.428h0l.026.011h0l.055.023h0l.026.011,0,0,.08.034,0,0,.022.009.005,0,.052.022.007,0,.02.008.007,0,.02.009.007,0,.025.011.006,0,.019.008.01,0,.017.007.009,0,.021.009.008,0,.02.009.01,0,.015.006.012.005.014.006.011,0,.023.01.012.005.014.006.013.005.011,0,.014.006.011,0,.023.01.012.005.014.006.01,0,.015.007.008,0,.032.014.006,0,.015.006.009,0,.015.007.01,0,.015.006.007,0,.03.013.009,0,.015.007.009,0,.016.007.006,0,.038.016h0l.016.007.008,0,.015.007.01,0,.014.006.014.006.021.009.011,0,.014.006.012.005.012.005.019.008.009,0,.021.009.008,0,.017.007.01,0,0,0-.807,1.83c-.888-.392-1.8-.772-2.7-1.129Zm5.488,2.422c.2.1.4.2.6.3h0l.026.013h0l.026.013,0,0,.02.01.009,0,.015.007.011.006.012.006.03.015h0l.018.009,0,0,.019.009h0q.741.372,1.473.758l.008,0,.013.007.014.007.009,0,.05.027h0l.3.162-.944,1.763c-.856-.458-1.732-.906-2.6-1.331l.876-1.8Zm5.289,2.83c.248.145.491.289.738.437h0l.075.045h0l.022.013,0,0,.049.03,0,0,.02.012.006,0,.018.011.006,0,.024.014,0,0,.019.012.009.005.015.009.009.005.016.01.01.006.019.011.011.007.011.007.012.008.011.006.012.007.01.006.024.015.008.005.014.008.009.005.014.008.009.006.048.029.007,0,.015.009.007,0,.016.01h0l.057.035,0,0,.018.011h0q.589.361,1.172.732l-1.074,1.687c-.819-.521-1.659-1.034-2.5-1.524l1.01-1.726Zm5.06,3.221q1.236.854,2.436,1.751l-1.2,1.6c-.777-.581-1.576-1.156-2.375-1.707Zm4.8,3.593q.985.8,1.943,1.622h0l.069.059,0,0,.032.028,0,0,.029.025,0,0,.03.026.01.009.021.018.018.016.017.015.016.014.01.009.033.029.006.005.049.042-1.315,1.507c-.731-.638-1.485-1.271-2.24-1.881Zm4.52,3.943q.256.24.509.483l0,0,.065.063,0,0,.033.031h0l.032.031h0l.032.031,0,0,.063.061,0,0,.063.061,0,0,.031.03,0,0,.031.03,0,0,.032.031,0,0,.064.062,0,0,.064.062,0,0,.032.032h0l.066.064,0,0,.065.064h0q.468.459.929.926l-1.424,1.4c-.682-.691-1.386-1.379-2.092-2.044Zm4.212,4.271.012.013.009.01.023.026.014.015.014.015.015.017.015.017.019.021L138.3,26l.025.027.006.007.023.025.007.008.027.03.005.006.025.027,0,0,.028.031,0,.005.059.065,0,0,.061.068h0q.549.609,1.085,1.229h0l.091.105,0,0,.059.069,0,0,.059.069,0,0,.029.034,0,0,.029.034h0l.029.033,0,0,.056.066,0,.005.028.033h0l.027.032,0,0,.028.033,0,0,.026.031,0,0L138.629,29.4c-.628-.74-1.278-1.478-1.933-2.195l1.476-1.35Zm3.88,4.575.007.009.006.007.034.044,0,0,.016.02,0,0q.5.634.98,1.277h0l.017.023h0l.053.071h0l.071.094h0c.208.279.413.557.618.839L142.242,34c-.57-.785-1.164-1.57-1.763-2.333Zm3.526,4.853q.439.655.865,1.318l0,0,.013.021,0,0,.013.021,0,0,.015.024,0,0,.012.019,0,.007.011.017,0,.006.014.021,0,.006.012.019.005.008.009.014.006.01.009.014.006.009.013.021.006.01.008.012.007.011.007.011.008.013.006.01.03.047,0,.006.01.015,0,.006.048.075h0q.232.366.46.736l-1.7,1.05c-.51-.826-1.042-1.653-1.583-2.459Zm3.151,5.1.046.081h0l.01.018,0,0,.01.017,0,0,.015.027.007.012.006.011.008.014,0,.008.012.021,0,0,.029.051v0q.529.943,1.032,1.9h0l.027.051,0,0,.01.02,0,.007.01.018,0,.007.012.023,0,.008.008.014.007.013.005.01.008.015,0,0,.03.058v0l.108.207-1.776.919c-.446-.862-.914-1.727-1.393-2.571Zm2.756,5.328.064.137h0q.6,1.288,1.16,2.6l-1.841.782c-.379-.893-.781-1.791-1.194-2.669Zm2.345,5.522,0,.012,0,.01.009.025,0,.007.008.02,0,.006c.345.908.671,1.82.983,2.744l-1.895.64c-.31-.919-.642-1.845-.987-2.752l1.869-.711Zm1.918,5.683,0,.014.006.02,0,.014,0,.013,0,.014,0,.012,0,.016,0,.017.005.018,0,.011,0,.017,0,.01.006.021,0,.006.008.026,0,.009.005.019,0,.008.006.021,0,.006.008.027v0l.007.023,0,.007.007.022v0l.016.056v0l.007.023v.005l.016.056v0l.008.026v0l.016.057h0l.008.027v0l.025.087h0l.025.087v0l.008.028h0q.288,1.017.55,2.045L154.6,60.3c-.24-.94-.5-1.889-.776-2.819Zm1.481,5.813q.179.834.341,1.675h0l.017.089V64.5l0,.019v.007l.006.029,0,.013,0,.014,0,.013,0,.013,0,.017,0,.01,0,.026,0,.009,0,.018,0,.011,0,.021v.006l.005.029v0l0,.026v.005l0,.027v0l.011.06h0c.049.264.1.533.144.8l-1.97.345c-.168-.956-.356-1.922-.56-2.871Zm1.036,5.908q.036.265.071.531v0l0,.021v0l.005.041v0l0,.019v.007l0,.018V69.3l0,.031v.011l0,.016v.011l0,.016,0,.013,0,.025,0,.013,0,.015,0,.013,0,.014,0,.017,0,.02,0,.015,0,.013,0,.015,0,.013,0,.025V69.6l0,.016,0,.014,0,.015v.012l0,.026v.01l0,.018v.011l0,.017v.011l0,.025v.011l0,.016,0,.013,0,.015,0,.012,0,.025,0,.014,0,.014,0,.013,0,.015v.012l0,.025,0,.013,0,.015,0,.014,0,.014,0,.013,0,.025,0,.013,0,.014,0,.014,0,.014,0,.014,0,.024,0,.015v.013l0,.015V70.2l0,.03v.009l0,.016v.012l0,.015V70.3l0,.028v.01l0,.017v.01l0,.017v.008l0,.038v0l0,.017v.011l0,.016v.012l0,.026v.013l0,.015v.013l0,.015v.013l0,.019,0,.019v.013l0,.016v.012l0,.021v.006l0,.027v.009l0,.02v.009l.006.056v.007l0,.024v0l.007.06h0c.026.24.05.476.074.717l-1.99.2c-.1-.967-.21-1.944-.341-2.906Zm.588,5.97q.091,1.493.126,3l-2,.047c-.023-.972-.064-1.956-.123-2.924l2-.121Zm-1.859,5.972,2,.027c-.007.529-.02,1.054-.037,1.58v.37l0,.063v.028l0,.068h0q-.018.444-.04.887l-2-.1C156.948,82.536,156.979,81.553,156.993,80.581Zm-.3,5.842,1.992.176c-.088,1-.2,1.995-.32,2.982l-1.984-.251C156.5,88.368,156.61,87.39,156.7,86.423Zm-.734,5.8,1.973.326c-.163.988-.345,1.974-.545,2.95l-1.96-.4C155.624,94.149,155.8,93.182,155.961,92.224Zm-1.171,5.728,1.943.475q-.108.441-.221.881h0l-.015.059v0l-.007.028h0l-.023.088h0l-.023.088h0q-.128.491-.261.978h0l-.016.059v0l-.007.026v0l-.015.055,0,.008-.005.018,0,.011,0,.016-.005.019,0,.015,0,.016,0,.008,0,.018v.005q-.068.246-.138.492l-1.923-.548C154.308,99.846,154.56,98.9,154.79,97.953Zm-1.6,5.622,1.9.621-.054.165v0l-.009.027h0l-.009.028h0l-.009.026,0,.008-.006.018,0,.011-.005.015-.006.017-.006.017,0,.015,0,.011-.005.015,0,.008-.02.059v0l-.007.02v0q-.159.478-.324.952v0l-.03.087h0l-.007.021v0l-.022.062v0l-.007.019,0,.005-.007.019v0l-.014.039v0l-.006.018,0,.006-.006.018,0,.007-.014.039h0l-.005.015,0,.011,0,.014,0,.012,0,.014-.006.017-.006.017,0,.014,0,.013,0,.013,0,.013-.005.015,0,.013-.007.021,0,.011-.006.016,0,.011-.006.017,0,.008-.009.025,0,.009-.006.018,0,.009-.007.019,0,.007-.009.026,0,0-.007.021,0,.01-.006.016,0,.009-.008.023v0l-.009.026,0,.008-.006.018,0,.009-.007.019,0,.007-.009.025,0,.008-.006.017,0,.011-.006.016,0,.011-.008.023,0,.007-.007.02,0,.01-.006.016,0,.011-.006.015-.006.018-.006.016,0,.013,0,.012-.005.015,0,.009-.02.054,0,.008-.006.017,0,.007-.007.018h0l-.023.063v0l-.024.065-1.876-.693C152.564,105.427,152.887,104.5,153.188,103.575Zm-2.025,5.485,1.849.763q-.573,1.389-1.2,2.751L150,111.741C150.4,110.859,150.793,109.957,151.164,109.06Zm-2.435,5.316,1.785.9q-.187.369-.376.736h0l-.014.026h0l-.041.079v0l-.013.024h0l-.027.053h0l-.013.025,0,0-.013.024h0l-.027.052v0l-.012.022,0,0-.026.05,0,0-.012.022,0,0-.012.022v0l-.027.051,0,0-.011.022,0,0-.013.024h0l-.014.026h0l-.013.024,0,0-.012.023v0l-.027.052v0l-.012.022,0,0-.027.05,0,0-.012.023,0,0-.012.022,0,0-.027.05,0,0-.011.02,0,.006-.012.022v0l-.014.026v0l-.012.022,0,.007-.01.018,0,.006-.026.049,0,.006-.01.018,0,.008-.011.021v0l-.014.025,0,0-.011.021,0,.007-.01.018,0,.007-.026.049,0,.006-.01.019,0,.006-.011.02,0,.005-.013.024,0,0-.01.019,0,.009-.008.016,0,.009-.008.015-.007.013-.01.018,0,.009-.008.015-.005.01-.008.015,0,.009-.011.02-.007.012-.008.014-.006.011-.006.012-.007.012-.007.012-.01.018-.008.015-.006.012-.006.011-.007.012-.006.011-.007.013,0,.009-.014.026,0,.009-.008.014-.005.009-.008.014,0,.008-.028.051,0,.006-.009.017,0,0-.031.056,0,0-.01.017,0,0-.01.018h0l-1.75-.968C147.831,116.112,148.291,115.242,148.728,114.376Zm-2.831,5.117,1.712,1.034q-.691,1.144-1.418,2.262l0,0-.048.073,0,.006-.009.014-.006.009-.008.013-.008.012-.012.018-.008.012-.007.011-.009.013-.005.008-.012.018,0,0-.015.023,0,0-.014.021,0,0-.006.009-1.672-1.1C144.872,121.156,145.4,120.323,145.9,119.493Zm-3.209,4.889,1.63,1.16q-.231.325-.465.647h0l-.054.074,0,0-.012.017,0,0-.038.052,0,0-.011.015-.005.007-.01.013-.006.008-.032.044-.007.01-.008.011-.009.012-.007.01-.009.012-.011.014-.011.015-.007.009-.01.013-.007.009-.01.014-.006.008-.016.021,0,0-.014.019,0,.006-.012.017,0,.007-.013.018,0,0-.016.022,0,0-.014.019,0,0-.014.019,0,0-.034.046,0,0-.015.02,0,0-.016.022h0l-.034.046,0,0-.015.02,0,0-.052.069,0,0-.015.02,0,0-.035.046v0l-.015.02,0,0-.016.021h0l-.035.046,0,0-.015.02,0,0-.052.069,0,0-.015.02,0,0-.034.045,0,0-.015.02,0,0-.016.022h0l-.035.046,0,0-.014.018,0,0-.014.019,0,0-.017.022,0,0-.013.017,0,.007-.013.017,0,.006-.016.021,0,0-.015.019-.006.008-.01.014-.007.009-.009.012-.007.009-.013.018-.009.012-.009.012-.008.01-.008.01-.009.012-.006.008-.035.046,0,.005-.011.015,0,.005-.054.071h0l-.085.111-1.585-1.22C141.541,125.963,142.127,125.172,142.689,124.382Zm-3.567,4.634,1.538,1.279q-.884,1.063-1.8,2.1h0l-.06.068,0,0-.029.033,0,0-.027.03,0,0-.027.031,0,0-1.489-1.335C137.858,130.507,138.5,129.762,139.122,129.016Zm-3.905,4.354,1.438,1.39-.309.318,0,0-.059.06-.008.008-.027.028-.012.012-.014.015-.017.017-.018.018-.017.017-.012.012-.025.025-.009.01-.021.022-.007.007-.028.028-.007.007-.029.029h0l-.03.03-.005.005-.062.062,0,0-.032.032h0l-.066.066h0q-.645.648-1.3,1.28l-1.385-1.443C133.844,134.762,134.542,134.067,135.216,133.37ZM131,137.419l1.329,1.494c-.288.256-.574.507-.866.759h0l-.065.056-.005,0-.063.054-.006.005-.036.031-.006.006-.02.017-.008.007-.032.027-.011.009-.018.015-.023.02-.016.014-.013.011-.022.019-.018.016-.015.013-.016.014-.021.017-.019.016-.013.011-.027.023-.01.008-.022.018-.011.01-.028.024-.01.009-.023.02-.008.007-.03.025-.008.007-.031.026h0l-.032.027-.007.006-.032.027h0l-.032.027,0,0-.033.028,0,0-.07.059h0q-.269.226-.54.449l-1.272-1.543C129.523,138.7,130.271,138.064,131,137.419Zm-4.512,3.721,1.214,1.59q-1.192.91-2.418,1.775l-1.153-1.634C124.919,142.311,125.712,141.729,126.484,141.14Zm-4.779,3.371,1.091,1.676-.157.1h0l-.019.012h0l-.052.034-.009.006-.013.008-.012.007-.009.006-.047.031h0l-.024.015h0q-.906.583-1.828,1.141h0l-.077.046h0l-.024.015h0l-.051.031h0l-.025.015h0l-.075.045,0,0-.022.013,0,0-.024.015h0l-.025.015h0l-.024.014,0,0-.009.006-1.027-1.716C120.057,145.561,120.891,145.04,121.7,144.511Zm-5.018,3,.961,1.754q-1.314.72-2.658,1.392l-.894-1.789C114.964,148.435,115.835,147.979,116.687,147.513Zm-5.23,2.614.826,1.822q-.581.263-1.168.518h0l-.053.023h0l-.023.01-.006,0-.021.009-.006,0-.026.011h0l-.022.009-.009,0-.017.007-.009,0-.017.007-.016.007-.016.007-.012.005-.013.005-.013.006-.011,0-.053.023-.006,0-.016.007-.008,0-.081.034h0q-.387.165-.776.326l0,0-.08.033-.007,0-.017.007-.006,0-.051.021-.014.006-.011,0-.014.006-.011,0-.022.009,0,0-.024.01-.007,0-.02.008-.006,0-.025.01h0l-.024.01-.756-1.852C109.668,150.916,110.572,150.527,111.456,150.126Zm-5.413,2.21.685,1.879c-.8.292-1.607.571-2.421.838l-.008,0-.02.006-.008,0-.025.008-.011,0-.013,0-.016.005-.008,0-.309.1-.613-1.9C104.2,152.987,105.131,152.668,106.043,152.336Zm-5.565,1.792.54,1.926c-.814.228-1.628.443-2.452.646l-.007,0-.018,0-.012,0-.014,0-.031.007h0l-.021.005h0l-.342.083-.467-1.945C98.592,154.637,99.544,154.39,100.478,154.128Zm-5.686,1.364.392,1.961c-.456.091-.909.178-1.367.261h0l-.09.016h0l-.026,0h0l-.028.005H93.66l-.021,0-.028.005-.01,0-.024,0-.027,0-.028,0-.013,0-.014,0-.026,0-.026,0-.01,0-.017,0h-.006l-.037.006h-.006l-.019,0h-.007l-.086.015h-.005l-.088.015h0l-.183.031h0l-.09.015h0l-.089.015h0l-.021,0h0l-.065.011h0l-.02,0H92.67l-.059.01-.027,0-.026,0-.024,0-.028,0-.028,0-.011,0-.026,0h-.006l-.023,0H92.4l-.026,0h0l-.143.023-.318-1.975C92.873,155.857,93.841,155.682,94.792,155.492Zm-5.773.929.243,1.985-.179.022h-.011l-.029,0h-.012l-.026,0-.031,0h-.006c-.665.079-1.328.149-2,.212l-.031,0-.032,0H86.9l-.022,0-.03,0-.034,0-.027,0-.026,0-.06.005h0l-.021,0h0l-.4.035-.168-1.993C87.078,156.64,88.057,156.539,89.019,156.421Zm-5.828.492.094,2c-.7.033-1.409.057-2.115.071h-.182q-.35.006-.7.01l-.019-2C81.239,156.987,82.223,156.959,83.191,156.914Zm-8.774-.078c.968.063,1.951.108,2.923.134l-.055,2c-.586-.016-1.166-.038-1.749-.067h0l-.062,0-.03,0h0l-.059,0-.03,0-.036,0h-.059l-.036,0H75.16l-.035,0H75.1l-.034,0-.032,0-.03,0h-.006l-.059,0-.03,0h0l-.061,0h0l-.549-.034Zm-5.818-.6c.96.135,1.937.254,2.9.353l-.2,1.99q-1.146-.117-2.282-.267h0l-.065-.009h0l-.017,0h-.011l-.031,0-.013,0-.024,0h-.009l-.022,0h-.006l-.492-.068Zm-5.755-1.033c.947.207,1.912.4,2.868.571l-.353,1.969-.009,0-.035-.006h0l-.02,0h0l-.021,0h0q-1.364-.247-2.711-.539h0l-.087-.019H62.46l-.018,0-.009,0-.016,0Zm-5.659-1.467c.929.279,1.876.544,2.815.787l-.5,1.936c-.312-.081-.625-.164-.936-.249h0l-.028-.008h0l-.058-.016h0l-.026-.007-.006,0-.025-.007h0l-.029-.008h0l-.026-.007-.006,0-.022-.006-.007,0-.027-.008h0l-.026-.007-.009,0-.017,0-.01,0-.018-.005-.015,0-.019-.005-.012,0-.014,0-.013,0-.015,0-.011,0-.024-.007-.013,0-.014,0-.013,0-.014,0-.013,0-.019-.005-.019-.005-.011,0-.015,0-.011,0-.015,0-.01,0-.027-.008-.011,0-.014,0-.012,0-.015,0-.01,0L57.807,156l-.007,0-.016,0-.01,0-.016,0-.009,0-.032-.009-.007,0-.014,0-.013,0-.013,0-.014,0-.012,0-.024-.007-.01,0-.018-.005-.01,0-.018-.005-.009,0-.026-.008h0l-.025-.007-.007,0-.022-.006h0l-.057-.016h0l-.028-.008h0q-.386-.112-.771-.227Zm-5.532-1.893c.905.349,1.83.685,2.748,1l-.647,1.892q-.533-.182-1.062-.372h0l-.109-.039h0l-.085-.031h0l-.019-.007,0,0-.059-.021-.005,0-.018-.006-.008,0-.016-.006-.007,0-.03-.011-.01,0-.014-.005-.011,0-.015-.005-.01,0-.024-.009-.013,0-.014,0-.012,0-.013,0-.012,0-.013,0-.023-.009-.01,0-.016-.006-.011,0-.017-.006-.008,0-.025-.009,0,0-.022-.008-.007,0L52,154.114l-.006,0-.054-.02h0l-.023-.009,0,0-.083-.031h0c-.3-.11-.594-.222-.888-.336Zm-5.373-2.307c.877.417,1.773.822,2.664,1.2l-.789,1.838q-.906-.389-1.8-.8h0l-.08-.037-.007,0-.016-.007-.008,0-.015-.007-.012-.006-.019-.009-.016-.007-.01,0-.016-.007-.009,0-.018-.009-.006,0-.026-.012h0l-.024-.011,0,0c-.217-.1-.429-.2-.645-.3ZM41.1,146.833c.843.482,1.706.954,2.566,1.4l-.926,1.773q-1.333-.7-2.632-1.439Zm-4.964-3.091c.8.544,1.629,1.08,2.453,1.593l-1.057,1.7-.516-.324h0l-.019-.012h0l-.018-.012h0l-.031-.019-.011-.007-.01-.006-.014-.009-.008-.005-.022-.014h0l-.025-.016h0l-.024-.015h0q-.915-.583-1.812-1.19Zm-4.717-3.456c.761.6,1.544,1.2,2.326,1.773l-1.182,1.613q-1.2-.876-2.354-1.793h0l-.021-.017,0,0-.007-.005Zm-4.445-3.8c.714.658,1.449,1.312,2.187,1.942l-1.3,1.52q-.487-.417-.969-.842l0,0-.041-.036,0,0-.021-.018,0,0-.037-.032L26.775,139l-.018-.016-.014-.012-.026-.023-.013-.012-.019-.017-.021-.019-.014-.012-.019-.017-.015-.013-.022-.02-.012-.01-.028-.025-.008-.007-.024-.021-.009-.008-.029-.026-.006-.006-.027-.024-.005,0-.031-.028,0,0-.066-.059,0,0q-.365-.329-.727-.662Zm-4.148-4.124c.662.71,1.347,1.416,2.035,2.1l-1.41,1.418-.015-.015,0,0-.06-.06,0,0-.1-.1h0q-.966-.967-1.9-1.969ZM19,127.937c.607.757,1.237,1.513,1.872,2.247l-1.512,1.309q-.889-1.027-1.743-2.085h0l-.029-.036h0l-.027-.034,0,0-.026-.032-.006-.008-.021-.026-.007-.009-.022-.027-.01-.012-.017-.021-.008-.009Zm-3.484-4.7c.548.8,1.12,1.6,1.7,2.381l-1.606,1.191c-.5-.668-.978-1.34-1.452-2.023l0,0-.013-.019,0-.005-.012-.018,0-.006-.015-.021-.005-.008-.01-.014-.007-.009-.009-.013-.007-.01-.006-.009-.02-.029v0l-.011-.016,0-.005-.012-.017h0l-.146-.212Zm-3.12-4.946c.486.839,1,1.681,1.514,2.5l-1.691,1.067q-.8-1.268-1.553-2.567Zm-2.738-5.167c.421.874.866,1.751,1.32,2.609l-1.767.936q-.487-.919-.951-1.853l0,0-.008-.017,0-.007-.011-.022-.008-.016-.005-.011-.007-.013-.006-.011L8.2,114.7l0-.009-.025-.05,0,0-.01-.021,0-.005c-.1-.207-.2-.41-.3-.618Zm-2.339-5.359c.354.9.73,1.812,1.118,2.7l-1.833.8q-.29-.665-.568-1.336h0l-.024-.058,0-.01L6,109.852l-.005-.013,0-.011-.01-.024v0l-.009-.022,0-.007-.009-.021,0,0c-.171-.415-.337-.828-.5-1.247Zm-1.925-5.521c.284.928.591,1.862.91,2.779l-1.888.659q-.493-1.413-.934-2.851ZM3.892,96.6c.213.947.447,1.9.7,2.84l-1.933.513c-.075-.282-.149-.567-.22-.85h0l-.022-.087v0L2.4,98.982v0l-.014-.057v0l-.006-.025v0l-.014-.058v0L2.359,98.8h0l-.022-.089h0l-.022-.089h0q-.184-.747-.355-1.5h0L1.954,97.1l0-.008,0-.02,0-.008-.006-.025ZM2.825,90.848c.141.961.3,1.932.479,2.885L1.337,94.1c-.078-.42-.152-.839-.223-1.261h0l-.01-.06v0l0-.025v0l0-.029v0l0-.025,0-.012,0-.015,0-.013,0-.014L1.075,92.6v0l0-.02v-.005q-.118-.716-.224-1.436Zm-.63-5.814c.068.969.156,1.95.26,2.914l-1.988.215c-.079-.729-.148-1.464-.208-2.2h0l0-.03v0l0-.058v-.039l0-.02,0-.02v-.037Q.22,85.466.2,85.175ZM0,79.178l2,.008q0,.157,0,.314c0,.868.015,1.747.043,2.613l-2,.066q-.02-.594-.031-1.19h0v-.5c0-.005,0-.01,0-.015v-.227s0-.007,0-.011V80.18s0,0,0-.007,0-.018,0-.026,0-.007,0-.01v-.094c0-.008,0-.016,0-.024s0-.006,0-.009v-.027s0,0,0,0v-.024s0-.006,0-.009v-.032c0-.005,0-.017,0-.023v-.035s0,0,0-.007,0-.018,0-.023,0,0,0-.007,0-.017,0-.028,0,0,0-.006v-.023s0,0,0-.007v-.027s0,0,0-.007V79.7s0,0,0-.006,0-.017,0-.028,0,0,0-.006,0-.015,0-.025v0c0-.011,0-.017,0-.028s0,0,0-.008,0-.017,0-.025v0c0-.011,0-.017,0-.028s0-.005,0-.008V79.5H0q0-.019,0-.037v-.009q0-.015,0-.029c0-.005,0,0,0-.009v-.037q0-.037,0-.075v-.018s0-.01,0-.014c0-.029,0-.064,0-.093Zm.247-5.994,1.994.157c-.076.967-.135,1.949-.175,2.92l-2-.082C.1,75.337.15,74.5.211,73.669v-.006l0-.022v-.028l0-.023v-.037Q.233,73.369.247,73.184Zm.695-5.958,1.976.306c-.149.958-.281,1.933-.393,2.9L.538,70.2q.06-.514.126-1.026h0l.009-.067v0l0-.017v-.011l0-.015,0-.018,0-.014,0-.021V69l0-.021v-.007L.7,68.909v0l0-.03h0c.074-.553.153-1.1.238-1.652Zm1.143-5.889,1.948.455c-.221.945-.426,1.907-.611,2.86l-1.963-.381.006-.033h0q.222-1.141.476-2.269v0l.006-.026v0l.006-.026v0l.006-.024,0-.011,0-.014,0-.015,0-.008Q2.026,61.584,2.084,61.337ZM3.67,55.552l1.907.6c-.292.925-.57,1.869-.827,2.805L2.822,58.43Q3.22,56.98,3.67,55.552ZM5.692,49.9l1.856.745c-.361.9-.71,1.82-1.037,2.734l-1.883-.674q.126-.352.255-.7l0,0,.007-.018,0-.006L4.9,51.96l0-.006.011-.031,0-.01.005-.014,0-.012,0-.012.006-.016,0-.009.009-.025,0-.008.007-.018,0-.009.007-.018,0-.008.019-.051,0-.008L5,51.685l0-.006.02-.054v0l.009-.024,0,0,.031-.081v0l.009-.025v0l.021-.055v0l.009-.024v0l.021-.055v0l.009-.025,0-.005.009-.023v0l.01-.027v0l.009-.023,0-.007.007-.02,0-.008.009-.023v0l.01-.025,0-.009.007-.018,0-.009.006-.016,0-.01.009-.024,0-.011.005-.014.005-.014,0-.011L5.263,51l0-.011.01-.025,0-.011.006-.015,0-.008.007-.018v0Q5.492,50.4,5.692,49.9Zm2.444-5.478,1.794.884c-.429.871-.846,1.761-1.242,2.647l-1.826-.815.056-.125,0-.006.007-.017,0-.008.006-.014.007-.017.007-.015.007-.016,0-.01.007-.016,0-.009.009-.021,0,0L7,46.839v0l.011-.024v0l.011-.025h0q.342-.757.7-1.5h0L7.76,45.2l0-.006.01-.02,0-.006.011-.023,0,0,.011-.022,0-.008.008-.016.005-.01.006-.013.006-.012,0-.005.015-.032,0-.007L7.857,45l0-.006L7.9,44.91h0Q8.017,44.667,8.135,44.426Zm2.852-5.278,1.722,1.017c-.493.836-.977,1.692-1.439,2.546l-1.76-.951c.475-.879.969-1.753,1.476-2.612ZM14.229,34.1l1.641,1.143c-.555.8-1.1,1.614-1.627,2.43L12.56,36.594q.221-.344.445-.685l0-.005.01-.015.005-.008.009-.013.006-.009.013-.02.009-.014.006-.008.01-.015.005-.008.012-.019,0,0,.016-.024h0l.015-.023,0,0,.015-.023h0q.532-.8,1.084-1.6Zm3.612-4.789,1.55,1.263c-.613.753-1.22,1.527-1.8,2.3l-1.6-1.2.017-.022,0,0,.053-.069v0q.847-1.119,1.731-2.206h0l.046-.057Zm3.961-4.5,1.451,1.376c-.668.7-1.331,1.431-1.972,2.16l-1.5-1.321q.387-.44.78-.874h0l.062-.068,0,0,.06-.066,0,0,.029-.032,0,0,.026-.029,0,0,.028-.03.007-.007.025-.028,0,0,.027-.029.009-.009.026-.028.007-.008.021-.022.01-.011.025-.027.009-.01.019-.021.009-.01L21,25.669l.012-.013.016-.018.017-.019.017-.018.013-.014.018-.019.017-.019.014-.015.013-.014.021-.023.016-.017.011-.012.026-.028.01-.011.017-.018.008-.009.03-.032.007-.007.018-.019,0,0,.034-.036,0-.005.058-.062,0,0,.06-.064h0l.341-.362Zm4.288-4.2,1.344,1.481c-.719.652-1.435,1.327-2.129,2.006l-1.4-1.43q.293-.287.589-.57l0,0,.059-.056.009-.008L24.6,22l.01-.01.016-.015.013-.013.022-.021.016-.015.014-.014.017-.016.019-.018.016-.016.013-.012.025-.024.012-.011.019-.018.01-.01.026-.025.011-.011.022-.021.01-.009.025-.024.01-.009.028-.026.006-.006.025-.023.008-.007.029-.028.005-.005.028-.026,0,0,.031-.029.005,0,.064-.06,0,0,.066-.062h0l.034-.032h0Q25.674,20.99,26.09,20.612Zm4.59-3.862,1.229,1.578c-.765.6-1.53,1.216-2.273,1.841l-1.288-1.53.235-.2,0,0,.063-.053.008-.007.038-.032,0,0,.019-.015.012-.01.026-.022.015-.012.016-.014.016-.013.022-.018.017-.014.014-.012.027-.022.012-.01.02-.017.011-.009.029-.024.01-.008.025-.021L29,18.1l.03-.025.009-.007.031-.025,0,0,.029-.024.007-.006.032-.026.005,0,.029-.024.005,0,.032-.026.006-.005.031-.026h0l.033-.027.005,0,.067-.055.005,0,.034-.028h0l.034-.028,0,0,.035-.028,0,0,.07-.057,0,0,.071-.057h0l.109-.088h0l.072-.058h0l.072-.058h0l.44-.35h0l.073-.057h0l.11-.086h0l.072-.056,0,0,.07-.055,0,0,.034-.027Zm4.867-3.506,1.107,1.666c-.808.537-1.617,1.1-2.4,1.664l-1.169-1.623q.446-.321.9-.636l0,0L34,14.3l.005,0,.049-.034.007,0,.014-.009.009-.006.012-.009.012-.008.016-.011.014-.01.009-.006.015-.01.008-.006.017-.012,0,0,.023-.016,0,0,.021-.014,0,0,.02-.014,0,0c.328-.227.654-.45.985-.672h0l.048-.032,0,0,.018-.012.007,0,.014-.01.009-.006.013-.009.02-.013.008-.006.015-.01,0,0Zm5.117-3.13.978,1.744c-.846.475-1.695.972-2.523,1.479l-1.044-1.706q.439-.268.881-.531l0,0,.018-.011h0l.052-.031.009-.005.014-.008.009-.005.014-.008.009-.005.02-.012L39.123,11,39.131,11l.016-.009.008,0,.018-.011.005,0,.049-.029h0l.023-.014h0q.7-.412,1.41-.81ZM46,7.38l.844,1.813c-.88.409-1.764.841-2.628,1.284L43.309,8.7q1.152-.59,2.322-1.142l0,0,.024-.011h0l.026-.012,0,0,.021-.01.009,0,.015-.007.012-.006.012-.006.052-.024,0,0,.018-.009,0,0Zm5.531-2.322.7,1.872c-.908.341-1.822.7-2.717,1.08l-.774-1.844q1.381-.58,2.788-1.109Zm5.691-1.9.559,1.92c-.931.271-1.87.564-2.791.871l-.632-1.9Q55.784,3.583,57.226,3.162Zm5.819-1.457.412,1.957c-.949.2-1.908.421-2.849.656l-.486-1.94.254-.063h0l.026-.006.006,0,.023-.006h0l.026-.007.009,0,.017,0,.012,0,.013,0,.058-.014h0l.021-.005h0q.941-.23,1.892-.437H62.5l.02,0h0l.031-.007.013,0,.012,0,.019,0,.007,0ZM68.958.693l.263,1.983c-.962.128-1.935.275-2.891.439l-.337-1.971.353-.06h0l.026,0h0l.029,0h0l.023,0,.027,0,.027,0,.023,0,.012,0,.016,0,.011,0,.017,0h0l.039-.006h0l.019,0h.006l.088-.014h0q.415-.067.831-.13h0l.091-.014h0l.089-.013h0l.021,0h0l.044-.007h0l.018,0h.01l.024,0,.034,0,.023,0,.027,0,.032,0,.02,0,.029,0,.011,0,.021,0h.007l.027,0,.028,0,.011,0,.024,0h0l.028,0H68.2l.024,0h.006l.058-.008h0l.025,0h.005L68.38.771h0l.027,0h0l.061-.008h0l.03,0h0L68.878.7h0l.08-.011ZM74.93.129l.113,2c-.97.055-1.951.129-2.916.22L71.939.355l.122-.011.03,0h0l.058-.005.028,0,.031,0,.033,0h.028l.025,0,.034,0h0l.02,0h0l.09-.008h0l.6-.051h0L73.15.25h0l.09-.007h.005l.021,0h0l.064,0,.027,0h0l.045,0h.028l.027,0,.039,0h.028l.026,0,.029,0H73.6l.028,0,.039,0,.028,0,.029,0h.012l.025,0,.028,0,.029,0,.037,0,.027,0,.03,0h.037l.029,0,.03,0,.036,0,.028,0,.029,0,.024,0h.068l.038,0,.026,0,.063,0h.026ZM79.5,0V2c-.509,0-1.025.005-1.534.015l-.039-2h.065C78.409.006,78.823,0,79.24,0h.26Z" transform="translate(945 146)" fill="#fff"></path></g><g transform="translate(1803.438 -1000.552) rotate(90)"><path d="M15-1A16,16,0,0,1,26.314,26.314,16,16,0,0,1,3.686,3.686,15.9,15.9,0,0,1,15-1Zm0,30A14,14,0,0,0,24.9,5.1,14,14,0,1,0,5.1,24.9,13.908,13.908,0,0,0,15,29Z" transform="translate(1544.141 271.693)" fill="#fff"></path><path d="M11.511-2A13.511,13.511,0,0,1,25.023,11.511,13.511,13.511,0,0,1,11.511,25.023,13.511,13.511,0,0,1-2,11.511,13.511,13.511,0,0,1,11.511-2Zm0,23.023A9.511,9.511,0,1,0,2,11.511,9.522,9.522,0,0,0,11.511,21.023Z" transform="translate(1699.996 646.193)" fill="#fff"></path><path d="M6.511-.5A7.011,7.011,0,1,1-.5,6.511,7.019,7.019,0,0,1,6.511-.5Zm0,13.023A6.011,6.011,0,1,0,.5,6.511,6.018,6.018,0,0,0,6.511,12.523Z" transform="translate(1756.996 253.67)" fill="#fff"></path><path d="M8.409-1A9.409,9.409,0,1,1-1,8.409,9.42,9.42,0,0,1,8.409-1Zm0,16.818A7.409,7.409,0,1,0,1,8.409,7.418,7.418,0,0,0,8.409,15.818Z" transform="translate(1406.971 717.398)" fill="#fff"></path></g><g transform="translate(1134.584 417.001)"><path d="M1031.942,1505.3c-.053.89-1.045,1.155-1.763,1.248a4.412,4.412,0,0,1-1.506.031c-.185,1.939-.12,1.243-.307,3.255a1.887,1.887,0,0,1-1.374.318l-.79-.791v-.809a7.358,7.358,0,0,1-.086-1.965c-1.111-.37-.7-.369-3.5-.326-.681-.367-1.235-.9-1.066-1.618a2.021,2.021,0,0,1,.148-.147l.326-.21a6.368,6.368,0,0,0,1.21-.241c1.374.08,1.007.059,3.008.179.063-.694.148-1.386.266-2.07a3.583,3.583,0,0,1,.5-1.459c.174-.059.341-.13.506-.2a3.676,3.676,0,0,1,.885.11,1.583,1.583,0,0,1,.291.832l.068.177c-.12,1.346-.1,1.16-.173,1.944a.575.575,0,0,0,.214.361c.172.119.82.039,1.025.065a7.623,7.623,0,0,1,.759.129,4.092,4.092,0,0,1,.557.164c.07,0,.14.006.21.007v.086A.945.945,0,0,1,1031.942,1505.3Z" transform="translate(-895.107 -1062.701)" fill="#fff"></path><path d="M1288.942,1416.3c-.053.89-1.045,1.155-1.763,1.248a4.412,4.412,0,0,1-1.506.031c-.185,1.939-.12,1.243-.307,3.255a1.887,1.887,0,0,1-1.374.318l-.79-.791v-.809a7.368,7.368,0,0,1-.086-1.965c-1.111-.37-.7-.368-3.5-.326-.681-.367-1.235-.9-1.066-1.618a2.01,2.01,0,0,1,.148-.147l.326-.21a6.36,6.36,0,0,0,1.21-.241c1.374.08,1.007.059,3.008.179.063-.694.148-1.386.266-2.07a3.582,3.582,0,0,1,.5-1.459c.174-.059.341-.13.506-.2a3.686,3.686,0,0,1,.885.11,1.581,1.581,0,0,1,.291.832l.068.177c-.12,1.346-.1,1.16-.173,1.944a.573.573,0,0,0,.214.361c.172.119.82.039,1.024.065a7.661,7.661,0,0,1,.759.129,4.1,4.1,0,0,1,.556.164c.07,0,.14.006.21.007v.086A.944.944,0,0,1,1288.942,1416.3Z" transform="translate(-911.398 -903.438)" fill="#fff"></path><path d="M1361.942,1650.3c-.053.89-1.045,1.155-1.763,1.248a4.412,4.412,0,0,1-1.506.031c-.185,1.939-.12,1.243-.307,3.255a1.887,1.887,0,0,1-1.374.318l-.79-.791v-.809a7.358,7.358,0,0,1-.086-1.965c-1.111-.37-.7-.368-3.5-.326-.681-.367-1.235-.9-1.066-1.618a2.008,2.008,0,0,1,.148-.147l.326-.21a6.371,6.371,0,0,0,1.21-.241c1.374.08,1.007.059,3.008.179.063-.694.148-1.386.266-2.07a3.582,3.582,0,0,1,.5-1.459c.174-.059.341-.13.506-.2a3.682,3.682,0,0,1,.885.11,1.582,1.582,0,0,1,.291.832l.068.177c-.12,1.346-.1,1.16-.173,1.944a.574.574,0,0,0,.214.361c.172.119.82.039,1.025.065a7.658,7.658,0,0,1,.759.129,4.092,4.092,0,0,1,.557.164c.07,0,.14.006.21.007v.086A.944.944,0,0,1,1361.942,1650.3Z" transform="translate(-908.536 -1379.563)" fill="#fff"></path><path d="M915.435,1944.046c-.1,1.7-2,2.206-3.369,2.384a8.442,8.442,0,0,1-2.876.061c-.355,3.7-.229,2.375-.588,6.218a3.6,3.6,0,0,1-2.623.607l-1.511-1.511v-1.545a14.134,14.134,0,0,1-.163-3.756c-2.123-.707-1.338-.7-6.693-.622-1.3-.7-2.36-1.723-2.038-3.091a3.59,3.59,0,0,1,.284-.281l.622-.4a12.244,12.244,0,0,0,2.311-.46c2.625.152,1.926.111,5.747.341.119-1.325.282-2.646.508-3.954a6.842,6.842,0,0,1,.951-2.788c.331-.112.65-.25.967-.384a7.03,7.03,0,0,1,1.69.211,3.027,3.027,0,0,1,.557,1.589l.13.337c-.228,2.572-.2,2.216-.33,3.714a1.1,1.1,0,0,0,.409.689c.327.227,1.567.074,1.957.123.486.061.971.139,1.449.247a7.858,7.858,0,0,1,1.064.315c.134,0,.267.01.4.012v.165A1.8,1.8,0,0,1,915.435,1944.046Z" transform="translate(-865.646 -1934.865)" fill="#fff"></path><path d="M1433.813,1925.228c-.256,4.3-5.044,5.571-8.507,6.022-1.675.218-4.9.747-7.263.152-.9,9.354-.578,6-1.484,15.7-2.617,1.7-3.572,1.531-6.625,1.531l-3.813-3.812v-3.9c-.8-3.013-.464-6.524-.414-9.485-5.36-1.785-3.378-1.775-16.9-1.57-3.282-1.773-5.961-4.349-5.144-7.8a9.373,9.373,0,0,1,.716-.71l1.571-1.013a30.869,30.869,0,0,0,5.836-1.161c6.628.383,4.86.28,14.512.862.3-3.348.711-6.685,1.282-9.983.349-2.017.927-5.063,2.4-7.041.839-.283,1.645-.631,2.441-.969a17.7,17.7,0,0,1,4.267.531,7.63,7.63,0,0,1,1.409,4.012l.328.851c-.574,6.495-.494,5.6-.834,9.375a2.769,2.769,0,0,0,1.033,1.742c.826.572,3.957.187,4.942.309,1.226.153,2.452.35,3.657.624a19.725,19.725,0,0,1,2.685.8c.338.007.675.026,1.013.03,0,.153,0,.275,0,.418C1432.64,1921.61,1433.949,1922.961,1433.813,1925.228Z" transform="translate(-1075.303 -1527.302)" fill="#fff"></path><path d="M1043.035,1854.271c-.1,1.659-1.949,2.152-3.286,2.326a8.223,8.223,0,0,1-2.807.059c-.346,3.614-.224,2.317-.573,6.067a3.516,3.516,0,0,1-2.56.592l-1.473-1.473v-1.508a13.78,13.78,0,0,1-.16-3.665c-2.071-.69-1.305-.686-6.53-.607-1.269-.685-2.3-1.68-1.988-3.015a3.442,3.442,0,0,1,.277-.274l.607-.391a11.945,11.945,0,0,0,2.255-.449c2.561.148,1.878.108,5.607.333.116-1.293.275-2.582.5-3.857a6.677,6.677,0,0,1,.927-2.72c.324-.109.635-.244.943-.375a6.858,6.858,0,0,1,1.648.206,2.951,2.951,0,0,1,.544,1.55l.126.328c-.221,2.51-.19,2.163-.322,3.623a1.073,1.073,0,0,0,.4.673c.319.221,1.529.072,1.91.119a14.268,14.268,0,0,1,1.413.241,7.555,7.555,0,0,1,1.038.307c.131,0,.26.01.392.012,0,.059,0,.106,0,.161A1.759,1.759,0,0,1,1043.035,1854.271Z" transform="translate(-963.376 -1804.551)" fill="#fff"></path><path d="M1216.675,1808.175c-.078,1.317-1.546,1.707-2.607,1.846a6.546,6.546,0,0,1-2.226.047c-.275,2.868-.178,1.838-.455,4.813a2.79,2.79,0,0,1-2.031.469l-1.169-1.169v-1.2a10.942,10.942,0,0,1-.127-2.907c-1.643-.548-1.035-.544-5.179-.481-1.007-.544-1.827-1.333-1.577-2.392a2.753,2.753,0,0,1,.219-.217l.481-.311a9.531,9.531,0,0,0,1.789-.356c2.032.117,1.49.085,4.448.264.092-1.026.218-2.049.393-3.06a5.3,5.3,0,0,1,.736-2.158c.256-.086.5-.193.748-.3a5.439,5.439,0,0,1,1.308.163,2.338,2.338,0,0,1,.432,1.23l.1.26c-.177,1.991-.152,1.716-.255,2.874a.846.846,0,0,0,.316.535c.254.175,1.213.057,1.515.094.376.047.752.107,1.121.191a6.276,6.276,0,0,1,.823.244c.1,0,.207.009.31.01v.128A1.4,1.4,0,0,1,1216.675,1808.175Z" transform="translate(-893.047 -1358.445)" fill="#fff"></path><path d="M1052.537,1671.1c-.092,1.539-1.808,2-3.048,2.158a7.636,7.636,0,0,1-2.6.054c-.321,3.351-.207,2.149-.532,5.626a3.257,3.257,0,0,1-2.373.549l-1.366-1.366v-1.4a12.768,12.768,0,0,1-.149-3.4c-1.92-.639-1.21-.635-6.055-.562-1.175-.635-2.135-1.558-1.843-2.8a3.267,3.267,0,0,1,.256-.256l.563-.363a11.131,11.131,0,0,0,2.091-.416c2.375.137,1.742.1,5.2.309.108-1.2.255-2.395.459-3.577a6.194,6.194,0,0,1,.86-2.522c.3-.1.589-.226.875-.347a6.327,6.327,0,0,1,1.529.19,2.73,2.73,0,0,1,.5,1.438l.118.3c-.206,2.326-.177,2.006-.3,3.36a.993.993,0,0,0,.369.624c.3.205,1.418.067,1.771.111a13.227,13.227,0,0,1,1.31.223,7.087,7.087,0,0,1,.962.285c.122,0,.242.01.364.011v.149A1.631,1.631,0,0,1,1052.537,1671.1Z" transform="translate(-510.844 -1330.779)" fill="#fff"></path><path d="M1311.851,1832.8c-.149,2.5-2.933,3.239-4.946,3.5a12.376,12.376,0,0,1-4.224.088c-.52,5.44-.336,3.487-.862,9.131-1.522.99-2.078.891-3.853.891l-2.217-2.217v-2.269a20.743,20.743,0,0,1-.241-5.516c-3.117-1.039-1.964-1.032-9.827-.913-1.909-1.031-3.467-2.529-2.992-4.538a5.168,5.168,0,0,1,.417-.413l.913-.589a18,18,0,0,0,3.394-.676c3.854.223,2.827.163,8.439.5.175-1.947.413-3.886.745-5.805a10.05,10.05,0,0,1,1.4-4.094c.487-.164.956-.367,1.419-.564a10.316,10.316,0,0,1,2.481.309,4.439,4.439,0,0,1,.819,2.333l.19.494c-.333,3.777-.287,3.255-.484,5.453a1.615,1.615,0,0,0,.6,1.013c.48.332,2.3.108,2.874.18a21.535,21.535,0,0,1,2.127.363,11.368,11.368,0,0,1,1.562.463c.2,0,.392.015.59.018,0,.088,0,.16,0,.242A2.647,2.647,0,0,1,1311.851,1832.8Z" transform="translate(-905.056 -1735.86)" fill="#fff"></path><path d="M997.405,1951.293a2.056,2.056,0,0,1,.3.112l19.127,8.871a2.1,2.1,0,0,1,.325,3.618l-17.246,12.128a2.1,2.1,0,0,1-3.3-1.528l-1.881-21a2.1,2.1,0,0,1,2.673-2.2Zm3.063,19.209,11.3-7.948-12.535-5.815Z" transform="translate(-694.415 -1941.984)" fill="#fff"></path><path d="M958.358,1535.906a1.382,1.382,0,0,1,.171.095l10.785,7.1a1.283,1.283,0,0,1-.13,2.22l-11.538,5.792a1.285,1.285,0,0,1-1.859-1.223l.753-12.889a1.285,1.285,0,0,1,1.817-1.093Zm.124,11.911,7.561-3.8-7.068-4.651Z" transform="translate(-899.949 -1161.045)" fill="#fff"></path><path d="M1320.553,1608.293a1.371,1.371,0,0,1,.171.095l10.785,7.1a1.284,1.284,0,0,1-.129,2.22l-11.538,5.792a1.285,1.285,0,0,1-1.859-1.223l.754-12.889a1.285,1.285,0,0,1,1.817-1.093Zm.123,11.911,7.562-3.8-7.068-4.652Z" transform="translate(-906.843 -1312.609)" fill="#fff"></path><path d="M1001.553,1427.293a1.366,1.366,0,0,1,.171.095l10.785,7.1a1.284,1.284,0,0,1-.129,2.22l-11.538,5.792a1.285,1.285,0,0,1-1.859-1.223l.754-12.889a1.284,1.284,0,0,1,1.817-1.093Zm.123,11.911,7.562-3.8-7.068-4.652Z" transform="translate(-790.088 -955.95)" fill="#fff"></path><path d="M887.553,1717.293a1.382,1.382,0,0,1,.171.095l10.785,7.1a1.284,1.284,0,0,1-.129,2.22l-11.538,5.792a1.285,1.285,0,0,1-1.859-1.223l.754-12.889a1.284,1.284,0,0,1,1.817-1.093Zm.123,11.911,7.562-3.8-7.068-4.652Z" transform="translate(-884.98 -1525.106)" fill="#fff"></path><path d="M994.46,1586.156a.879.879,0,0,1,.12.067l7.572,4.982a.9.9,0,0,1-.091,1.559l-8.1,4.066a.9.9,0,0,1-1.306-.858l.529-9.049a.9.9,0,0,1,1.276-.767Zm.086,8.362,5.31-2.664-4.963-3.266Z" transform="translate(-962.726 -1264.915)" fill="#fff"></path><path d="M1307.658,1550.346c-.046.773-.907,1-1.529,1.083a3.835,3.835,0,0,1-1.307.026c-.16,1.682-.1,1.079-.267,2.823a1.632,1.632,0,0,1-1.191.275l-.686-.686v-.7a6.394,6.394,0,0,1-.074-1.7c-.964-.321-.608-.319-3.038-.283-.591-.319-1.072-.781-.925-1.4a1.788,1.788,0,0,1,.128-.128l.283-.181a5.662,5.662,0,0,0,1.049-.209c1.192.068.874.05,2.609.155.053-.6.127-1.2.23-1.795a3.113,3.113,0,0,1,.432-1.266c.15-.051.3-.114.439-.175a3.188,3.188,0,0,1,.767.1,1.37,1.37,0,0,1,.253.721l.059.153c-.1,1.168-.088,1.007-.149,1.685a.5.5,0,0,0,.185.313c.149.1.711.034.889.056.22.027.441.063.657.112a3.5,3.5,0,0,1,.483.142l.182.006v.075A.818.818,0,0,1,1307.658,1550.346Z" transform="translate(-905.865 -1184.661)" fill="#fff"></path><path d="M905.45,1811.959c-.12,2-2.346,2.59-3.956,2.8a9.9,9.9,0,0,1-3.378.071c-.417,4.35-.269,2.789-.69,7.3a4.231,4.231,0,0,1-3.08.712l-1.774-1.774v-1.814a16.552,16.552,0,0,1-.193-4.411c-2.493-.83-1.571-.825-7.86-.73-1.527-.825-2.773-2.022-2.393-3.629a4.57,4.57,0,0,1,.333-.33l.731-.471a14.37,14.37,0,0,0,2.714-.54c3.082.178,2.261.13,6.749.4.14-1.556.33-3.109.6-4.643a8.065,8.065,0,0,1,1.116-3.274c.39-.131.765-.293,1.136-.451a8.264,8.264,0,0,1,1.984.247,3.544,3.544,0,0,1,.655,1.866l.153.4c-.268,3.02-.23,2.6-.388,4.36a1.29,1.29,0,0,0,.481.811c.385.265,1.84.086,2.3.143a17.128,17.128,0,0,1,1.7.29,9.078,9.078,0,0,1,1.25.37c.157,0,.313.011.471.014,0,.07,0,.128,0,.194A2.117,2.117,0,0,1,905.45,1811.959Z" transform="translate(-324.622 -1630.777)" fill="#fff"></path><path d="M1289.016,1749.191a1.578,1.578,0,0,1,.2.111l12.688,8.35a1.51,1.51,0,0,1-.153,2.612l-13.574,6.814a1.512,1.512,0,0,1-2.188-1.438l.887-15.163a1.511,1.511,0,0,1,2.138-1.286Zm.145,14.012,8.9-4.466-8.316-5.472Z" transform="translate(-1020.118 -1699.381)" fill="#fff"></path><path d="M1333.23,1677.684a.961.961,0,0,1,.133.074l8.387,5.519a1,1,0,0,1-.1,1.726l-8.973,4.5a1,1,0,0,1-1.445-.95l.586-10.022a1,1,0,0,1,1.413-.85Zm.1,9.262,5.879-2.951-5.5-3.617Z" transform="translate(-907.512 -1444.5)" fill="#fff"></path></g><g transform="translate(-3775.29 17770)"><circle cx="184" cy="184" r="184" transform="translate(4934 -17353)" fill="#1fbbeb"></circle><g transform="translate(-161.908 -188.718)"><g transform="translate(5137 -17074)"><g transform="translate(0 120.623)"><path d="M50.26,114.271a10.867,10.867,0,0,0-1.821-6.4,6.531,6.531,0,0,0-5.7-2.942,6.535,6.535,0,0,0-5.7,2.942,10.788,10.788,0,0,0-1.835,6.4,11.133,11.133,0,0,0,1.835,6.464,6.536,6.536,0,0,0,5.7,2.943,6.533,6.533,0,0,0,5.7-2.943A11.215,11.215,0,0,0,50.26,114.271Zm11.031,0a20.67,20.67,0,0,1-5,14.118,17.153,17.153,0,0,1-13.55,6,17.131,17.131,0,0,1-13.548-6,20.679,20.679,0,0,1-5.015-14.118,20.632,20.632,0,0,1,5.015-14.118A17.326,17.326,0,0,1,42.74,94.216a17.216,17.216,0,0,1,13.55,5.937A20.622,20.622,0,0,1,61.291,114.271Z" transform="translate(-24.176 -82.303)" fill="#fff" fill-rule="evenodd"></path><path d="M76.958,114.271a10.883,10.883,0,0,0-1.833-6.4,6.994,6.994,0,0,0-11.4,0,10.867,10.867,0,0,0-1.82,6.4,11.214,11.214,0,0,0,1.82,6.464,6.992,6.992,0,0,0,11.4,0A11.232,11.232,0,0,0,76.958,114.271Zm11.031,0a21.73,21.73,0,0,1-4.527,13.695,15,15,0,0,1-12.468,6.425,13.775,13.775,0,0,1-9.089-3.1c0,.474.052,1.622.158,3.457s.157,3.349.157,4.537q0,9.84-5.858,9.83a5.142,5.142,0,0,1-3.944-1.69,5.873,5.873,0,0,1-1.545-4.1V100.668a5.72,5.72,0,0,1,1.584-4.037,5.163,5.163,0,0,1,3.919-1.688,5.38,5.38,0,0,1,5.145,3.508,11.572,11.572,0,0,1,9.46-4.235,15.044,15.044,0,0,1,12.482,6.346A21.875,21.875,0,0,1,87.989,114.271Z" transform="translate(-10.989 -82.303)" fill="#fff" fill-rule="evenodd"></path><path d="M103.824,110.313a6.465,6.465,0,0,0-2.335-4.606,6.986,6.986,0,0,0-4.79-2.071,7.067,7.067,0,0,0-4.869,2.071,6.167,6.167,0,0,0-2.257,4.606Zm11.03,2.771c0,1.845-.436,3.112-1.307,3.826a6.46,6.46,0,0,1-4.062,1.055H89.573a5.338,5.338,0,0,0,2.97,4.867,11.932,11.932,0,0,0,5.858,1.334,15.913,15.913,0,0,0,6.466-1.767c2.519-1.188,4.141-1.77,4.842-1.77a4.3,4.3,0,0,1,3.258,1.412,4.777,4.777,0,0,1,1.333,3.379q0,4.531-6.769,7.059a30.248,30.248,0,0,1-10.514,1.912q-8.63,0-13.946-5.725a20.3,20.3,0,0,1-5.33-14.4,19.919,19.919,0,0,1,5.541-14.155A18.035,18.035,0,0,1,97,94.216,16.553,16.553,0,0,1,109.736,99.8,19.045,19.045,0,0,1,114.854,113.084Z" transform="translate(2.281 -82.303)" fill="#fff" fill-rule="evenodd"></path><path d="M138.676,127.873a5.885,5.885,0,0,1-1.543,4.1,5.148,5.148,0,0,1-3.945,1.69q-5.779,0-5.78-9.17c0-1.174.081-3.022.239-5.568s.251-4.394.251-5.568q0-9.719-6.28-9.724t-6.267,9.724c0,1.174.066,3.034.184,5.568s.2,4.394.2,5.568q0,9.163-5.7,9.17a5.1,5.1,0,0,1-3.932-1.69,5.831,5.831,0,0,1-1.558-4.1V100.656A5.655,5.655,0,0,1,106.1,96.6a5.149,5.149,0,0,1,3.944-1.661,5.536,5.536,0,0,1,5.5,3.508q2.671-4.233,9.446-4.235c4.183,0,7.508,1.108,9.948,3.311q3.74,3.545,3.735,9.739Z" transform="translate(15.52 -82.303)" fill="#fff" fill-rule="evenodd"></path><g transform="translate(157.178)"><path d="M161.011,126.7q0,3.74-4.867,5.925a19.585,19.585,0,0,1-8.193,1.767,17.134,17.134,0,0,1-13.55-6,20.686,20.686,0,0,1-5.014-14.118,20.74,20.74,0,0,1,5.118-14.222,17.017,17.017,0,0,1,13.445-5.832,21.819,21.819,0,0,1,8.26,1.413q4.807,1.9,4.8,5.935a5.547,5.547,0,0,1-1.267,3.6,4.018,4.018,0,0,1-3.243,1.557,12.936,12.936,0,0,1-3.88-.895,12.6,12.6,0,0,0-4.023-.9,7.347,7.347,0,0,0-6.136,2.81,10.069,10.069,0,0,0-2.045,6.531,10.761,10.761,0,0,0,1.835,6.387,6.507,6.507,0,0,0,5.713,3.021,14.636,14.636,0,0,0,4.444-.965,15.1,15.1,0,0,1,4.092-.961,4.1,4.1,0,0,1,3.179,1.557A5.122,5.122,0,0,1,161.011,126.7Z" transform="translate(-129.387 -82.303)" fill="#fff" fill-rule="evenodd"></path><path d="M178.636,114.271a10.867,10.867,0,0,0-1.821-6.4,6.657,6.657,0,0,0-5.7-2.942,6.538,6.538,0,0,0-5.7,2.942,10.8,10.8,0,0,0-1.832,6.4,11.5,11.5,0,0,0,1.766,6.464,6.7,6.7,0,0,0,5.768,2.943,6.534,6.534,0,0,0,5.7-2.943A11.215,11.215,0,0,0,178.636,114.271Zm11.03,13.6a5.878,5.878,0,0,1-1.543,4.1,5.175,5.175,0,0,1-3.96,1.69,5.289,5.289,0,0,1-5.144-3.511,11.559,11.559,0,0,1-9.46,4.235A15.119,15.119,0,0,1,157,127.965a23.342,23.342,0,0,1,0-27.4,15.258,15.258,0,0,1,12.561-6.346,11.568,11.568,0,0,1,9.46,4.235,5.285,5.285,0,0,1,5.144-3.508,5.169,5.169,0,0,1,3.922,1.688,5.7,5.7,0,0,1,1.582,4.025Z" transform="translate(-117.945 -82.303)" fill="#fff" fill-rule="evenodd"></path><path d="M204.259,99.929a4.855,4.855,0,0,1-3.444,4.867q-3.187,1.071-6.346,2.19c-2.311,1.321-3.457,3.774-3.457,7.337v13.55a5.9,5.9,0,0,1-1.555,4.1,5.184,5.184,0,0,1-3.96,1.69,5.13,5.13,0,0,1-3.956-1.69,5.824,5.824,0,0,1-1.558-4.1V100.656a5.7,5.7,0,0,1,1.543-4.052,5.2,5.2,0,0,1,3.959-1.661,5.535,5.535,0,0,1,5.5,3.508c2.363-2.822,4.9-4.235,7.627-4.235a5.426,5.426,0,0,1,4,1.688A5.616,5.616,0,0,1,204.259,99.929Z" transform="translate(-104.396 -82.303)" fill="#fff" fill-rule="evenodd"></path><path d="M224.385,104.368c0,2.455-.962,4-2.873,4.66a21.913,21.913,0,0,1-5.9.5v22.283a5.9,5.9,0,0,1-1.555,4.1,5.453,5.453,0,0,1-7.892,0,5.8,5.8,0,0,1-1.581-4.1V109.528a10.865,10.865,0,0,1-4.961-.858c-1.424-.792-2.127-2.23-2.127-4.3s.728-3.482,2.192-4.235a10.6,10.6,0,0,1,4.9-.843V94.566q0-8.332,5.514-8.324c3.668,0,5.514,2.77,5.514,8.324V99.29a21.849,21.849,0,0,1,5.9.5C223.423,100.449,224.385,101.982,224.385,104.368Z" transform="translate(-95.747 -86.242)" fill="#fff" fill-rule="evenodd"></path></g></g><g transform="translate(136.338 105.001)"><path d="M122.021,79.176H120.5v2.77h1.518a3.55,3.55,0,0,0,1.781-.317,1.218,1.218,0,0,0,.489-1.12,1.066,1.066,0,0,0-.554-1A3.392,3.392,0,0,0,122.021,79.176Zm.2-.726a4.257,4.257,0,0,1,2.36.515,1.752,1.752,0,0,1,.753,1.581,1.888,1.888,0,0,1-.488,1.334,2.018,2.018,0,0,1-1.319.633l1.69,3.576h-1.162l-1.636-3.417H120.5V86.09h-1.041V78.45Zm5.713,3.932a5.966,5.966,0,0,0-1.715-4.17,5.791,5.791,0,0,0-1.941-1.3,6.07,6.07,0,0,0-2.283-.447,5.631,5.631,0,0,0-2.256.447,5.935,5.935,0,0,0-1.9,1.256,6.238,6.238,0,0,0-1.306,1.965,5.841,5.841,0,0,0,0,4.488,5.8,5.8,0,0,0,1.294,1.912,5.866,5.866,0,0,0,1.926,1.292,5.716,5.716,0,0,0,2.242.463,5.956,5.956,0,0,0,2.271-.463,6.2,6.2,0,0,0,1.953-1.306,5.695,5.695,0,0,0,1.715-4.143Zm-5.938-6.6a6.636,6.636,0,0,1,2.547.5,6.474,6.474,0,0,1,2.138,1.437,6.408,6.408,0,0,1,1.412,2.124,6.585,6.585,0,0,1,.487,2.534,6.394,6.394,0,0,1-1.9,4.618,7,7,0,0,1-2.177,1.463,6.277,6.277,0,0,1-2.508.5,6.148,6.148,0,0,1-2.492-.5,6.818,6.818,0,0,1-3.576-3.573,6.479,6.479,0,0,1-.489-2.507,6.365,6.365,0,0,1,.5-2.522A6.565,6.565,0,0,1,117.39,77.7a6.266,6.266,0,0,1,2.086-1.425A6.694,6.694,0,0,1,121.994,75.785Z" transform="translate(-115.437 -75.785)" fill="#fff" fill-rule="evenodd"></path></g><g transform="translate(78.424 0)"><path d="M76.671,5.5c16.542,17.406,32,20.008,92.925,20.008,60.908,0,34.132,13.556-3.488,47.135,11.926-20.742,52.914-39.1-14.274-38.065C87.438,35.553,83.631,15.95,76.671,5.5Z" transform="translate(-76.671 -5.5)" fill="#fff"></path><path d="M111.782,64.535a9.209,9.209,0,1,1-9.2-9.219A9.2,9.2,0,0,1,111.782,64.535Z" transform="translate(-68.426 19.106)" fill="#fff"></path><path d="M139.865,64.535a9.209,9.209,0,1,1-9.2-9.219A9.2,9.2,0,0,1,139.865,64.535Z" transform="translate(-54.554 19.106)" fill="#fff"></path></g></g></g></g></g></g></svg>