<svg height="60" viewBox="0 0 60 60" width="60" xmlns="http://www.w3.org/2000/svg"><g fill="none" fill-rule="evenodd"><path d="m.11229034 30c0-16.5685433 13.23036026-30 29.55083866-30 16.3204783 0 29.5508386 13.4314567 29.5508386 30s-13.2303603 30-29.5508386 30c-16.3204784 0-29.55083866-13.4314567-29.55083866-30zm0 0" fill="#0b6dbb"/><path d="m20.6820403 21.0135-.8581198 4.4463621h17.4757761l-.5465395 2.8720862h-17.4867648l-.8464319 4.4456379h17.4742277l-.9745005 5.0706207-7.0430763 2.4160862-6.1037398-2.4160862.4177716-2.1993621h-4.2930469l-1.0213525 5.3366897 10.0952959 4.0009655 11.6382633-4.0009655 1.5445159-8.0275862.3123796-1.6099138 1.9833158-10.3345345zm0 0" fill="#fff"/><path d="m59.2139676 30c0 16.5685433-13.2303603 30-29.5508386 30-6.0528788 0-11.6807143-1.8474866-16.3660949-5.0172246l33.8602213-49.16336437c7.311898 5.46123927 12.0567122 14.25838627 12.0567122 24.18058897zm0 0" fill="#000" fill-opacity=".08"/></g></svg>